<!DOCTYPE svg PUBLIC "-//W3C//DTD SVG 1.1//EN"
 "http://www.w3.org/Graphics/SVG/1.1/DTD/svg11.dtd">
<svg version="1.1"
 width="800px" height="918px"
 viewBox="0 0 800 918"
 xmlns="http://www.w3.org/2000/svg" shape-rendering="crispEdges"
 stroke-width="1" text-rendering="geometricPrecision">
<polygon fill="white" points="10,7 68,7 68,16 10,16"/>
<text x="40" y="16" textLength="56" font-family="Helvetica" font-size="12" fill="black" text-anchor="middle">

GFTP-109
</text>
<polygon fill="white" points="95,7 143,7 143,16 95,16"/>
<text x="120" y="16" textLength="47" font-family="Helvetica" font-size="12" fill="black" text-anchor="middle">

gPlazma
</text>
<polygon fill="white" points="163,7 235,7 235,16 163,16"/>
<text x="200" y="16" textLength="71" font-family="Helvetica" font-size="12" fill="black" text-anchor="middle">

PnfsManager
</text>
<polygon fill="white" points="227,7 331,7 331,16 227,16"/>
<text x="280" y="16" textLength="103" font-family="Helvetica" font-size="12" fill="black" text-anchor="middle">

SrmSpaceManager
</text>
<polygon fill="white" points="323,7 395,7 395,16 323,16"/>
<text x="360" y="16" textLength="71" font-family="Helvetica" font-size="12" fill="black" text-anchor="middle">

PoolManager
</text>
<polygon fill="white" points="412,7 466,7 466,16 412,16"/>
<text x="440" y="16" textLength="53" font-family="Helvetica" font-size="12" fill="black" text-anchor="middle">

pool_read
</text>
<polygon fill="white" points="491,7 547,7 547,16 491,16"/>
<text x="520" y="16" textLength="55" font-family="Helvetica" font-size="12" fill="black" text-anchor="middle">

pool_write
</text>
<polygon fill="white" points="583,7 615,7 615,16 583,16"/>
<text x="600" y="16" textLength="31" font-family="Helvetica" font-size="12" fill="black" text-anchor="middle">

billing
</text>
<polygon fill="white" points="652,7 706,7 706,16 652,16"/>
<text x="680" y="16" textLength="53" font-family="Helvetica" font-size="12" fill="black" text-anchor="middle">

broadcast
</text>
<polygon fill="white" points="717,7 801,7 801,16 717,16"/>
<text x="760" y="16" textLength="83" font-family="Helvetica" font-size="12" fill="black" text-anchor="middle">

replicaManager
</text>
<line x1="40" y1="22" x2="40" y2="50" stroke="black"/>
<line x1="120" y1="22" x2="120" y2="50" stroke="black"/>
<line x1="200" y1="22" x2="200" y2="50" stroke="black"/>
<line x1="280" y1="22" x2="280" y2="50" stroke="black"/>
<line x1="360" y1="22" x2="360" y2="50" stroke="black"/>
<line x1="440" y1="22" x2="440" y2="50" stroke="black"/>
<line x1="520" y1="22" x2="520" y2="50" stroke="black"/>
<line x1="600" y1="22" x2="600" y2="50" stroke="black"/>
<line x1="680" y1="22" x2="680" y2="50" stroke="black"/>
<line x1="760" y1="22" x2="760" y2="50" stroke="black"/>
<line x1="40" y1="33" x2="120" y2="33" stroke="black"/>
<line x1="120" y1="33" x2="110" y2="39" stroke="black"/>
<polygon fill="white" points="64,23 95,23 95,32 64,32"/>
<text x="65" y="32" textLength="29" font-family="Helvetica" font-size="12" fill="black">
Login
</text>
<line x1="40" y1="50" x2="40" y2="78" stroke="black"/>
<line x1="120" y1="50" x2="120" y2="78" stroke="black"/>
<line x1="200" y1="50" x2="200" y2="78" stroke="black"/>
<line x1="280" y1="50" x2="280" y2="78" stroke="black"/>
<line x1="360" y1="50" x2="360" y2="78" stroke="black"/>
<line x1="440" y1="50" x2="440" y2="78" stroke="black"/>
<line x1="520" y1="50" x2="520" y2="78" stroke="black"/>
<line x1="600" y1="50" x2="600" y2="78" stroke="black"/>
<line x1="680" y1="50" x2="680" y2="78" stroke="black"/>
<line x1="760" y1="50" x2="760" y2="78" stroke="black"/>
<line x1="120" y1="61" x2="40" y2="61" stroke="black"/>
<line x1="40" y1="61" x2="50" y2="67" stroke="black"/>
<polygon fill="white" points="64,51 95,51 95,60 64,60"/>
<text x="65" y="60" textLength="29" font-family="Helvetica" font-size="12" fill="black">
Login
</text>
<line x1="40" y1="78" x2="40" y2="106" stroke="black"/>
<line x1="120" y1="78" x2="120" y2="106" stroke="black"/>
<line x1="200" y1="78" x2="200" y2="106" stroke="black"/>
<line x1="280" y1="78" x2="280" y2="106" stroke="black"/>
<line x1="360" y1="78" x2="360" y2="106" stroke="black"/>
<line x1="440" y1="78" x2="440" y2="106" stroke="black"/>
<line x1="520" y1="78" x2="520" y2="106" stroke="black"/>
<line x1="600" y1="78" x2="600" y2="106" stroke="black"/>
<line x1="680" y1="78" x2="680" y2="106" stroke="black"/>
<line x1="760" y1="78" x2="760" y2="106" stroke="black"/>
<line x1="40" y1="89" x2="200" y2="89" stroke="black"/>
<line x1="200" y1="89" x2="190" y2="95" stroke="black"/>
<polygon fill="white" points="74,79 165,79 165,88 74,88"/>
<text x="75" y="88" textLength="89" font-family="Helvetica" font-size="12" fill="black">
GetFileAttributes
</text>
<line x1="40" y1="106" x2="40" y2="134" stroke="black"/>
<line x1="120" y1="106" x2="120" y2="134" stroke="black"/>
<line x1="200" y1="106" x2="200" y2="134" stroke="black"/>
<line x1="280" y1="106" x2="280" y2="134" stroke="black"/>
<line x1="360" y1="106" x2="360" y2="134" stroke="black"/>
<line x1="440" y1="106" x2="440" y2="134" stroke="black"/>
<line x1="520" y1="106" x2="520" y2="134" stroke="black"/>
<line x1="600" y1="106" x2="600" y2="134" stroke="black"/>
<line x1="680" y1="106" x2="680" y2="134" stroke="black"/>
<line x1="760" y1="106" x2="760" y2="134" stroke="black"/>
<line x1="200" y1="117" x2="40" y2="117" stroke="black"/>
<line x1="40" y1="117" x2="50" y2="123" stroke="black"/>
<polygon fill="white" points="74,107 165,107 165,116 74,116"/>
<text x="75" y="116" textLength="89" font-family="Helvetica" font-size="12" fill="black">
GetFileAttributes
</text>
<line x1="40" y1="134" x2="40" y2="162" stroke="black"/>
<line x1="120" y1="134" x2="120" y2="162" stroke="black"/>
<line x1="200" y1="134" x2="200" y2="162" stroke="black"/>
<line x1="280" y1="134" x2="280" y2="162" stroke="black"/>
<line x1="360" y1="134" x2="360" y2="162" stroke="black"/>
<line x1="440" y1="134" x2="440" y2="162" stroke="black"/>
<line x1="520" y1="134" x2="520" y2="162" stroke="black"/>
<line x1="600" y1="134" x2="600" y2="162" stroke="black"/>
<line x1="680" y1="134" x2="680" y2="162" stroke="black"/>
<line x1="760" y1="134" x2="760" y2="162" stroke="black"/>
<line x1="40" y1="145" x2="280" y2="145" stroke="black"/>
<line x1="280" y1="145" x2="270" y2="151" stroke="black"/>
<polygon fill="white" points="115,135 203,135 203,144 115,144"/>
<text x="116" y="144" textLength="86" font-family="Helvetica" font-size="12" fill="black">
SelectReadPool
</text>
<line x1="40" y1="162" x2="40" y2="190" stroke="black"/>
<line x1="120" y1="162" x2="120" y2="190" stroke="black"/>
<line x1="200" y1="162" x2="200" y2="190" stroke="black"/>
<line x1="280" y1="162" x2="280" y2="190" stroke="black"/>
<line x1="360" y1="162" x2="360" y2="190" stroke="black"/>
<line x1="440" y1="162" x2="440" y2="190" stroke="black"/>
<line x1="520" y1="162" x2="520" y2="190" stroke="black"/>
<line x1="600" y1="162" x2="600" y2="190" stroke="black"/>
<line x1="680" y1="162" x2="680" y2="190" stroke="black"/>
<line x1="760" y1="162" x2="760" y2="190" stroke="black"/>
<line x1="280" y1="173" x2="360" y2="173" stroke="black"/>
<line x1="360" y1="173" x2="350" y2="179" stroke="black"/>
<polygon fill="white" points="275,163 363,163 363,172 275,172"/>
<text x="276" y="172" textLength="86" font-family="Helvetica" font-size="12" fill="black">
SelectReadPool
</text>
<line x1="40" y1="190" x2="40" y2="218" stroke="black"/>
<line x1="120" y1="190" x2="120" y2="218" stroke="black"/>
<line x1="200" y1="190" x2="200" y2="218" stroke="black"/>
<line x1="280" y1="190" x2="280" y2="218" stroke="black"/>
<line x1="360" y1="190" x2="360" y2="218" stroke="black"/>
<line x1="440" y1="190" x2="440" y2="218" stroke="black"/>
<line x1="520" y1="190" x2="520" y2="218" stroke="black"/>
<line x1="600" y1="190" x2="600" y2="218" stroke="black"/>
<line x1="680" y1="190" x2="680" y2="218" stroke="black"/>
<line x1="760" y1="190" x2="760" y2="218" stroke="black"/>
<line x1="360" y1="201" x2="440" y2="201" stroke="black"/>
<line x1="440" y1="201" x2="430" y2="207" stroke="black"/>
<polygon fill="white" points="349,191 450,191 450,200 349,200"/>
<text x="350" y="200" textLength="99" font-family="Helvetica" font-size="12" fill="black">
Pool2PoolTransfer
</text>
<line x1="40" y1="218" x2="40" y2="246" stroke="black"/>
<line x1="120" y1="218" x2="120" y2="246" stroke="black"/>
<line x1="200" y1="218" x2="200" y2="246" stroke="black"/>
<line x1="280" y1="218" x2="280" y2="246" stroke="black"/>
<line x1="360" y1="218" x2="360" y2="246" stroke="black"/>
<line x1="440" y1="218" x2="440" y2="246" stroke="black"/>
<line x1="520" y1="218" x2="520" y2="246" stroke="black"/>
<line x1="600" y1="218" x2="600" y2="246" stroke="black"/>
<line x1="680" y1="218" x2="680" y2="246" stroke="black"/>
<line x1="760" y1="218" x2="760" y2="246" stroke="black"/>
<line x1="440" y1="229" x2="520" y2="229" stroke="black"/>
<line x1="520" y1="229" x2="510" y2="235" stroke="black"/>
<polygon fill="white" points="438,219 521,219 521,228 438,228"/>
<text x="439" y="228" textLength="81" font-family="Helvetica" font-size="12" fill="black">
PoolDeliverFile
</text>
<line x1="40" y1="246" x2="40" y2="274" stroke="black"/>
<line x1="120" y1="246" x2="120" y2="274" stroke="black"/>
<line x1="200" y1="246" x2="200" y2="274" stroke="black"/>
<line x1="280" y1="246" x2="280" y2="274" stroke="black"/>
<line x1="360" y1="246" x2="360" y2="274" stroke="black"/>
<line x1="440" y1="246" x2="440" y2="274" stroke="black"/>
<line x1="520" y1="246" x2="520" y2="274" stroke="black"/>
<line x1="600" y1="246" x2="600" y2="274" stroke="black"/>
<line x1="680" y1="246" x2="680" y2="274" stroke="black"/>
<line x1="760" y1="246" x2="760" y2="274" stroke="black"/>
<line x1="520" y1="257" x2="440" y2="257" stroke="black"/>
<line x1="440" y1="257" x2="450" y2="263" stroke="black"/>
<polygon fill="white" points="438,247 521,247 521,256 438,256"/>
<text x="439" y="256" textLength="81" font-family="Helvetica" font-size="12" fill="black">
PoolDeliverFile
</text>
<line x1="40" y1="274" x2="40" y2="302" stroke="black"/>
<line x1="120" y1="274" x2="120" y2="302" stroke="black"/>
<line x1="200" y1="274" x2="200" y2="302" stroke="black"/>
<line x1="280" y1="274" x2="280" y2="302" stroke="black"/>
<line x1="360" y1="274" x2="360" y2="302" stroke="black"/>
<line x1="440" y1="274" x2="440" y2="302" stroke="black"/>
<line x1="520" y1="274" x2="520" y2="302" stroke="black"/>
<line x1="600" y1="274" x2="600" y2="302" stroke="black"/>
<line x1="680" y1="274" x2="680" y2="302" stroke="black"/>
<line x1="760" y1="274" x2="760" y2="302" stroke="black"/>
<line x1="520" y1="285" x2="440" y2="285" stroke="black"/>
<line x1="440" y1="285" x2="450" y2="291" stroke="black"/>
<polygon fill="white" points="437,275 522,275 522,284 437,284"/>
<text x="438" y="284" textLength="83" font-family="Helvetica" font-size="12" fill="black">
HttpDoorUrlInfo
</text>
<line x1="40" y1="302" x2="40" y2="330" stroke="black"/>
<line x1="120" y1="302" x2="120" y2="330" stroke="black"/>
<line x1="200" y1="302" x2="200" y2="330" stroke="black"/>
<line x1="280" y1="302" x2="280" y2="330" stroke="black"/>
<line x1="360" y1="302" x2="360" y2="330" stroke="black"/>
<line x1="440" y1="302" x2="440" y2="330" stroke="black"/>
<line x1="520" y1="302" x2="520" y2="330" stroke="black"/>
<line x1="600" y1="302" x2="600" y2="330" stroke="black"/>
<line x1="680" y1="302" x2="680" y2="330" stroke="black"/>
<line x1="760" y1="302" x2="760" y2="330" stroke="black"/>
<line x1="520" y1="313" x2="600" y2="313" stroke="black"/>
<line x1="600" y1="313" x2="590" y2="319" stroke="black"/>
<polygon fill="white" points="532,303 587,303 587,312 532,312"/>
<text x="533" y="312" textLength="53" font-family="Helvetica" font-size="12" fill="black">
MoverInfo
</text>
<line x1="40" y1="330" x2="40" y2="358" stroke="black"/>
<line x1="120" y1="330" x2="120" y2="358" stroke="black"/>
<line x1="200" y1="330" x2="200" y2="358" stroke="black"/>
<line x1="280" y1="330" x2="280" y2="358" stroke="black"/>
<line x1="360" y1="330" x2="360" y2="358" stroke="black"/>
<line x1="440" y1="330" x2="440" y2="358" stroke="black"/>
<line x1="520" y1="330" x2="520" y2="358" stroke="black"/>
<line x1="600" y1="330" x2="600" y2="358" stroke="black"/>
<line x1="680" y1="330" x2="680" y2="358" stroke="black"/>
<line x1="760" y1="330" x2="760" y2="358" stroke="black"/>
<line x1="520" y1="341" x2="440" y2="341" stroke="black"/>
<line x1="440" y1="341" x2="450" y2="347" stroke="black"/>
<polygon fill="white" points="433,331 525,331 525,340 433,340"/>
<text x="434" y="340" textLength="90" font-family="Helvetica" font-size="12" fill="black">
TransferFinished
</text>
<line x1="40" y1="358" x2="40" y2="386" stroke="black"/>
<line x1="120" y1="358" x2="120" y2="386" stroke="black"/>
<line x1="200" y1="358" x2="200" y2="386" stroke="black"/>
<line x1="280" y1="358" x2="280" y2="386" stroke="black"/>
<line x1="360" y1="358" x2="360" y2="386" stroke="black"/>
<line x1="440" y1="358" x2="440" y2="386" stroke="black"/>
<line x1="520" y1="358" x2="520" y2="386" stroke="black"/>
<line x1="600" y1="358" x2="600" y2="386" stroke="black"/>
<line x1="680" y1="358" x2="680" y2="386" stroke="black"/>
<line x1="760" y1="358" x2="760" y2="386" stroke="black"/>
<line x1="440" y1="369" x2="200" y2="369" stroke="black"/>
<line x1="200" y1="369" x2="210" y2="375" stroke="black"/>
<polygon fill="white" points="274,359 365,359 365,368 274,368"/>
<text x="275" y="368" textLength="89" font-family="Helvetica" font-size="12" fill="black">
GetFileAttributes
</text>
<line x1="40" y1="386" x2="40" y2="414" stroke="black"/>
<line x1="120" y1="386" x2="120" y2="414" stroke="black"/>
<line x1="200" y1="386" x2="200" y2="414" stroke="black"/>
<line x1="280" y1="386" x2="280" y2="414" stroke="black"/>
<line x1="360" y1="386" x2="360" y2="414" stroke="black"/>
<line x1="440" y1="386" x2="440" y2="414" stroke="black"/>
<line x1="520" y1="386" x2="520" y2="414" stroke="black"/>
<line x1="600" y1="386" x2="600" y2="414" stroke="black"/>
<line x1="680" y1="386" x2="680" y2="414" stroke="black"/>
<line x1="760" y1="386" x2="760" y2="414" stroke="black"/>
<line x1="200" y1="397" x2="440" y2="397" stroke="black"/>
<line x1="440" y1="397" x2="430" y2="403" stroke="black"/>
<polygon fill="white" points="274,387 365,387 365,396 274,396"/>
<text x="275" y="396" textLength="89" font-family="Helvetica" font-size="12" fill="black">
GetFileAttributes
</text>
<line x1="40" y1="414" x2="40" y2="442" stroke="black"/>
<line x1="120" y1="414" x2="120" y2="442" stroke="black"/>
<line x1="200" y1="414" x2="200" y2="442" stroke="black"/>
<line x1="280" y1="414" x2="280" y2="442" stroke="black"/>
<line x1="360" y1="414" x2="360" y2="442" stroke="black"/>
<line x1="440" y1="414" x2="440" y2="442" stroke="black"/>
<line x1="520" y1="414" x2="520" y2="442" stroke="black"/>
<line x1="600" y1="414" x2="600" y2="442" stroke="black"/>
<line x1="680" y1="414" x2="680" y2="442" stroke="black"/>
<line x1="760" y1="414" x2="760" y2="442" stroke="black"/>
<line x1="440" y1="425" x2="200" y2="425" stroke="black"/>
<line x1="200" y1="425" x2="210" y2="431" stroke="black"/>
<polygon fill="white" points="274,415 364,415 364,424 274,424"/>
<text x="275" y="424" textLength="88" font-family="Helvetica" font-size="12" fill="black">
SetFileAttributes
</text>
<line x1="40" y1="442" x2="40" y2="470" stroke="black"/>
<line x1="120" y1="442" x2="120" y2="470" stroke="black"/>
<line x1="200" y1="442" x2="200" y2="470" stroke="black"/>
<line x1="280" y1="442" x2="280" y2="470" stroke="black"/>
<line x1="360" y1="442" x2="360" y2="470" stroke="black"/>
<line x1="440" y1="442" x2="440" y2="470" stroke="black"/>
<line x1="520" y1="442" x2="520" y2="470" stroke="black"/>
<line x1="600" y1="442" x2="600" y2="470" stroke="black"/>
<line x1="680" y1="442" x2="680" y2="470" stroke="black"/>
<line x1="760" y1="442" x2="760" y2="470" stroke="black"/>
<line x1="200" y1="453" x2="680" y2="453" stroke="black"/>
<line x1="680" y1="453" x2="670" y2="459" stroke="black"/>
<polygon fill="white" points="388,443 491,443 491,452 388,452"/>
<text x="389" y="452" textLength="101" font-family="Helvetica" font-size="12" fill="black">
AddCacheLocation
</text>
<line x1="40" y1="470" x2="40" y2="498" stroke="black"/>
<line x1="120" y1="470" x2="120" y2="498" stroke="black"/>
<line x1="200" y1="470" x2="200" y2="498" stroke="black"/>
<line x1="280" y1="470" x2="280" y2="498" stroke="black"/>
<line x1="360" y1="470" x2="360" y2="498" stroke="black"/>
<line x1="440" y1="470" x2="440" y2="498" stroke="black"/>
<line x1="520" y1="470" x2="520" y2="498" stroke="black"/>
<line x1="600" y1="470" x2="600" y2="498" stroke="black"/>
<line x1="680" y1="470" x2="680" y2="498" stroke="black"/>
<line x1="760" y1="470" x2="760" y2="498" stroke="black"/>
<line x1="200" y1="481" x2="440" y2="481" stroke="black"/>
<line x1="440" y1="481" x2="430" y2="487" stroke="black"/>
<polygon fill="white" points="274,471 364,471 364,480 274,480"/>
<text x="275" y="480" textLength="88" font-family="Helvetica" font-size="12" fill="black">
SetFileAttributes
</text>
<line x1="40" y1="498" x2="40" y2="526" stroke="black"/>
<line x1="120" y1="498" x2="120" y2="526" stroke="black"/>
<line x1="200" y1="498" x2="200" y2="526" stroke="black"/>
<line x1="280" y1="498" x2="280" y2="526" stroke="black"/>
<line x1="360" y1="498" x2="360" y2="526" stroke="black"/>
<line x1="440" y1="498" x2="440" y2="526" stroke="black"/>
<line x1="520" y1="498" x2="520" y2="526" stroke="black"/>
<line x1="600" y1="498" x2="600" y2="526" stroke="black"/>
<line x1="680" y1="498" x2="680" y2="526" stroke="black"/>
<line x1="760" y1="498" x2="760" y2="526" stroke="black"/>
<line x1="680" y1="509" x2="760" y2="509" stroke="black"/>
<line x1="760" y1="509" x2="750" y2="515" stroke="black"/>
<polygon fill="white" points="668,499 771,499 771,508 668,508"/>
<text x="669" y="508" textLength="101" font-family="Helvetica" font-size="12" fill="black">
AddCacheLocation
</text>
<line x1="40" y1="526" x2="40" y2="554" stroke="black"/>
<line x1="120" y1="526" x2="120" y2="554" stroke="black"/>
<line x1="200" y1="526" x2="200" y2="554" stroke="black"/>
<line x1="280" y1="526" x2="280" y2="554" stroke="black"/>
<line x1="360" y1="526" x2="360" y2="554" stroke="black"/>
<line x1="440" y1="526" x2="440" y2="554" stroke="black"/>
<line x1="520" y1="526" x2="520" y2="554" stroke="black"/>
<line x1="600" y1="526" x2="600" y2="554" stroke="black"/>
<line x1="680" y1="526" x2="680" y2="554" stroke="black"/>
<line x1="760" y1="526" x2="760" y2="554" stroke="black"/>
<line x1="440" y1="537" x2="360" y2="537" stroke="black"/>
<line x1="360" y1="537" x2="370" y2="543" stroke="black"/>
<polygon fill="white" points="349,527 450,527 450,536 349,536"/>
<text x="350" y="536" textLength="99" font-family="Helvetica" font-size="12" fill="black">
Pool2PoolTransfer
</text>
<line x1="40" y1="554" x2="40" y2="582" stroke="black"/>
<line x1="120" y1="554" x2="120" y2="582" stroke="black"/>
<line x1="200" y1="554" x2="200" y2="582" stroke="black"/>
<line x1="280" y1="554" x2="280" y2="582" stroke="black"/>
<line x1="360" y1="554" x2="360" y2="582" stroke="black"/>
<line x1="440" y1="554" x2="440" y2="582" stroke="black"/>
<line x1="520" y1="554" x2="520" y2="582" stroke="black"/>
<line x1="600" y1="554" x2="600" y2="582" stroke="black"/>
<line x1="680" y1="554" x2="680" y2="582" stroke="black"/>
<line x1="760" y1="554" x2="760" y2="582" stroke="black"/>
<line x1="360" y1="565" x2="280" y2="565" stroke="black"/>
<line x1="280" y1="565" x2="290" y2="571" stroke="black"/>
<polygon fill="white" points="275,555 363,555 363,564 275,564"/>
<text x="276" y="564" textLength="86" font-family="Helvetica" font-size="12" fill="black">
SelectReadPool
</text>
<line x1="40" y1="582" x2="40" y2="610" stroke="black"/>
<line x1="120" y1="582" x2="120" y2="610" stroke="black"/>
<line x1="200" y1="582" x2="200" y2="610" stroke="black"/>
<line x1="280" y1="582" x2="280" y2="610" stroke="black"/>
<line x1="360" y1="582" x2="360" y2="610" stroke="black"/>
<line x1="440" y1="582" x2="440" y2="610" stroke="black"/>
<line x1="520" y1="582" x2="520" y2="610" stroke="black"/>
<line x1="600" y1="582" x2="600" y2="610" stroke="black"/>
<line x1="680" y1="582" x2="680" y2="610" stroke="black"/>
<line x1="760" y1="582" x2="760" y2="610" stroke="black"/>
<line x1="280" y1="593" x2="40" y2="593" stroke="black"/>
<line x1="40" y1="593" x2="50" y2="599" stroke="black"/>
<polygon fill="white" points="115,583 203,583 203,592 115,592"/>
<text x="116" y="592" textLength="86" font-family="Helvetica" font-size="12" fill="black">
SelectReadPool
</text>
<line x1="40" y1="610" x2="40" y2="638" stroke="black"/>
<line x1="120" y1="610" x2="120" y2="638" stroke="black"/>
<line x1="200" y1="610" x2="200" y2="638" stroke="black"/>
<line x1="280" y1="610" x2="280" y2="638" stroke="black"/>
<line x1="360" y1="610" x2="360" y2="638" stroke="black"/>
<line x1="440" y1="610" x2="440" y2="638" stroke="black"/>
<line x1="520" y1="610" x2="520" y2="638" stroke="black"/>
<line x1="600" y1="610" x2="600" y2="638" stroke="black"/>
<line x1="680" y1="610" x2="680" y2="638" stroke="black"/>
<line x1="760" y1="610" x2="760" y2="638" stroke="black"/>
<line x1="40" y1="621" x2="280" y2="621" stroke="black"/>
<line x1="280" y1="621" x2="270" y2="627" stroke="black"/>
<polygon fill="white" points="118,611 201,611 201,620 118,620"/>
<text x="119" y="620" textLength="81" font-family="Helvetica" font-size="12" fill="black">
PoolDeliverFile
</text>
<line x1="40" y1="638" x2="40" y2="666" stroke="black"/>
<line x1="120" y1="638" x2="120" y2="666" stroke="black"/>
<line x1="200" y1="638" x2="200" y2="666" stroke="black"/>
<line x1="280" y1="638" x2="280" y2="666" stroke="black"/>
<line x1="360" y1="638" x2="360" y2="666" stroke="black"/>
<line x1="440" y1="638" x2="440" y2="666" stroke="black"/>
<line x1="520" y1="638" x2="520" y2="666" stroke="black"/>
<line x1="600" y1="638" x2="600" y2="666" stroke="black"/>
<line x1="680" y1="638" x2="680" y2="666" stroke="black"/>
<line x1="760" y1="638" x2="760" y2="666" stroke="black"/>
<line x1="280" y1="649" x2="360" y2="649" stroke="black"/>
<line x1="360" y1="649" x2="350" y2="655" stroke="black"/>
<polygon fill="white" points="278,639 361,639 361,648 278,648"/>
<text x="279" y="648" textLength="81" font-family="Helvetica" font-size="12" fill="black">
PoolDeliverFile
</text>
<line x1="40" y1="666" x2="40" y2="694" stroke="black"/>
<line x1="120" y1="666" x2="120" y2="694" stroke="black"/>
<line x1="200" y1="666" x2="200" y2="694" stroke="black"/>
<line x1="280" y1="666" x2="280" y2="694" stroke="black"/>
<line x1="360" y1="666" x2="360" y2="694" stroke="black"/>
<line x1="440" y1="666" x2="440" y2="694" stroke="black"/>
<line x1="520" y1="666" x2="520" y2="694" stroke="black"/>
<line x1="600" y1="666" x2="600" y2="694" stroke="black"/>
<line x1="680" y1="666" x2="680" y2="694" stroke="black"/>
<line x1="760" y1="666" x2="760" y2="694" stroke="black"/>
<line x1="360" y1="677" x2="440" y2="677" stroke="black"/>
<line x1="440" y1="677" x2="430" y2="683" stroke="black"/>
<polygon fill="white" points="358,667 441,667 441,676 358,676"/>
<text x="359" y="676" textLength="81" font-family="Helvetica" font-size="12" fill="black">
PoolDeliverFile
</text>
<line x1="40" y1="694" x2="40" y2="722" stroke="black"/>
<line x1="120" y1="694" x2="120" y2="722" stroke="black"/>
<line x1="200" y1="694" x2="200" y2="722" stroke="black"/>
<line x1="280" y1="694" x2="280" y2="722" stroke="black"/>
<line x1="360" y1="694" x2="360" y2="722" stroke="black"/>
<line x1="440" y1="694" x2="440" y2="722" stroke="black"/>
<line x1="520" y1="694" x2="520" y2="722" stroke="black"/>
<line x1="600" y1="694" x2="600" y2="722" stroke="black"/>
<line x1="680" y1="694" x2="680" y2="722" stroke="black"/>
<line x1="760" y1="694" x2="760" y2="722" stroke="black"/>
<line x1="440" y1="705" x2="360" y2="705" stroke="black"/>
<line x1="360" y1="705" x2="370" y2="711" stroke="black"/>
<polygon fill="white" points="358,695 441,695 441,704 358,704"/>
<text x="359" y="704" textLength="81" font-family="Helvetica" font-size="12" fill="black">
PoolDeliverFile
</text>
<line x1="40" y1="722" x2="40" y2="750" stroke="black"/>
<line x1="120" y1="722" x2="120" y2="750" stroke="black"/>
<line x1="200" y1="722" x2="200" y2="750" stroke="black"/>
<line x1="280" y1="722" x2="280" y2="750" stroke="black"/>
<line x1="360" y1="722" x2="360" y2="750" stroke="black"/>
<line x1="440" y1="722" x2="440" y2="750" stroke="black"/>
<line x1="520" y1="722" x2="520" y2="750" stroke="black"/>
<line x1="600" y1="722" x2="600" y2="750" stroke="black"/>
<line x1="680" y1="722" x2="680" y2="750" stroke="black"/>
<line x1="760" y1="722" x2="760" y2="750" stroke="black"/>
<line x1="360" y1="733" x2="280" y2="733" stroke="black"/>
<line x1="280" y1="733" x2="290" y2="739" stroke="black"/>
<polygon fill="white" points="278,723 361,723 361,732 278,732"/>
<text x="279" y="732" textLength="81" font-family="Helvetica" font-size="12" fill="black">
PoolDeliverFile
</text>
<line x1="40" y1="750" x2="40" y2="778" stroke="black"/>
<line x1="120" y1="750" x2="120" y2="778" stroke="black"/>
<line x1="200" y1="750" x2="200" y2="778" stroke="black"/>
<line x1="280" y1="750" x2="280" y2="778" stroke="black"/>
<line x1="360" y1="750" x2="360" y2="778" stroke="black"/>
<line x1="440" y1="750" x2="440" y2="778" stroke="black"/>
<line x1="520" y1="750" x2="520" y2="778" stroke="black"/>
<line x1="600" y1="750" x2="600" y2="778" stroke="black"/>
<line x1="680" y1="750" x2="680" y2="778" stroke="black"/>
<line x1="760" y1="750" x2="760" y2="778" stroke="black"/>
<line x1="280" y1="761" x2="40" y2="761" stroke="black"/>
<line x1="40" y1="761" x2="50" y2="767" stroke="black"/>
<polygon fill="white" points="118,751 201,751 201,760 118,760"/>
<text x="119" y="760" textLength="81" font-family="Helvetica" font-size="12" fill="black">
PoolDeliverFile
</text>
<line x1="40" y1="778" x2="40" y2="806" stroke="black"/>
<line x1="120" y1="778" x2="120" y2="806" stroke="black"/>
<line x1="200" y1="778" x2="200" y2="806" stroke="black"/>
<line x1="280" y1="778" x2="280" y2="806" stroke="black"/>
<line x1="360" y1="778" x2="360" y2="806" stroke="black"/>
<line x1="440" y1="778" x2="440" y2="806" stroke="black"/>
<line x1="520" y1="778" x2="520" y2="806" stroke="black"/>
<line x1="600" y1="778" x2="600" y2="806" stroke="black"/>
<line x1="680" y1="778" x2="680" y2="806" stroke="black"/>
<line x1="760" y1="778" x2="760" y2="806" stroke="black"/>
<line x1="440" y1="789" x2="600" y2="789" stroke="black"/>
<line x1="600" y1="789" x2="590" y2="795" stroke="black"/>
<polygon fill="white" points="492,779 547,779 547,788 492,788"/>
<text x="493" y="788" textLength="53" font-family="Helvetica" font-size="12" fill="black">
MoverInfo
</text>
<line x1="40" y1="806" x2="40" y2="834" stroke="black"/>
<line x1="120" y1="806" x2="120" y2="834" stroke="black"/>
<line x1="200" y1="806" x2="200" y2="834" stroke="black"/>
<line x1="280" y1="806" x2="280" y2="834" stroke="black"/>
<line x1="360" y1="806" x2="360" y2="834" stroke="black"/>
<line x1="440" y1="806" x2="440" y2="834" stroke="black"/>
<line x1="520" y1="806" x2="520" y2="834" stroke="black"/>
<line x1="600" y1="806" x2="600" y2="834" stroke="black"/>
<line x1="680" y1="806" x2="680" y2="834" stroke="black"/>
<line x1="760" y1="806" x2="760" y2="834" stroke="black"/>
<line x1="440" y1="817" x2="360" y2="817" stroke="black"/>
<line x1="360" y1="817" x2="370" y2="823" stroke="black"/>
<polygon fill="white" points="353,807 445,807 445,816 353,816"/>
<text x="354" y="816" textLength="90" font-family="Helvetica" font-size="12" fill="black">
TransferFinished
</text>
<line x1="40" y1="834" x2="40" y2="862" stroke="black"/>
<line x1="120" y1="834" x2="120" y2="862" stroke="black"/>
<line x1="200" y1="834" x2="200" y2="862" stroke="black"/>
<line x1="280" y1="834" x2="280" y2="862" stroke="black"/>
<line x1="360" y1="834" x2="360" y2="862" stroke="black"/>
<line x1="440" y1="834" x2="440" y2="862" stroke="black"/>
<line x1="520" y1="834" x2="520" y2="862" stroke="black"/>
<line x1="600" y1="834" x2="600" y2="862" stroke="black"/>
<line x1="680" y1="834" x2="680" y2="862" stroke="black"/>
<line x1="760" y1="834" x2="760" y2="862" stroke="black"/>
<line x1="360" y1="845" x2="280" y2="845" stroke="black"/>
<line x1="280" y1="845" x2="290" y2="851" stroke="black"/>
<polygon fill="white" points="273,835 365,835 365,844 273,844"/>
<text x="274" y="844" textLength="90" font-family="Helvetica" font-size="12" fill="black">
TransferFinished
</text>
<line x1="40" y1="862" x2="40" y2="890" stroke="black"/>
<line x1="120" y1="862" x2="120" y2="890" stroke="black"/>
<line x1="200" y1="862" x2="200" y2="890" stroke="black"/>
<line x1="280" y1="862" x2="280" y2="890" stroke="black"/>
<line x1="360" y1="862" x2="360" y2="890" stroke="black"/>
<line x1="440" y1="862" x2="440" y2="890" stroke="black"/>
<line x1="520" y1="862" x2="520" y2="890" stroke="black"/>
<line x1="600" y1="862" x2="600" y2="890" stroke="black"/>
<line x1="680" y1="862" x2="680" y2="890" stroke="black"/>
<line x1="760" y1="862" x2="760" y2="890" stroke="black"/>
<line x1="280" y1="873" x2="40" y2="873" stroke="black"/>
<line x1="40" y1="873" x2="50" y2="879" stroke="black"/>
<polygon fill="white" points="113,863 205,863 205,872 113,872"/>
<text x="114" y="872" textLength="90" font-family="Helvetica" font-size="12" fill="black">
TransferFinished
</text>
<line x1="40" y1="890" x2="40" y2="918" stroke="black"/>
<line x1="120" y1="890" x2="120" y2="918" stroke="black"/>
<line x1="200" y1="890" x2="200" y2="918" stroke="black"/>
<line x1="280" y1="890" x2="280" y2="918" stroke="black"/>
<line x1="360" y1="890" x2="360" y2="918" stroke="black"/>
<line x1="440" y1="890" x2="440" y2="918" stroke="black"/>
<line x1="520" y1="890" x2="520" y2="918" stroke="black"/>
<line x1="600" y1="890" x2="600" y2="918" stroke="black"/>
<line x1="680" y1="890" x2="680" y2="918" stroke="black"/>
<line x1="760" y1="890" x2="760" y2="918" stroke="black"/>
<line x1="40" y1="901" x2="600" y2="901" stroke="black"/>
<line x1="600" y1="901" x2="590" y2="907" stroke="black"/>
<polygon fill="white" points="286,891 353,891 353,900 286,900"/>
<text x="287" y="900" textLength="65" font-family="Helvetica" font-size="12" fill="black">
RequestInfo
</text>
<line x1="40" y1="912" x2="40" y2="918" stroke="black"/>
<line x1="120" y1="912" x2="120" y2="918" stroke="black"/>
<line x1="200" y1="912" x2="200" y2="918" stroke="black"/>
<line x1="280" y1="912" x2="280" y2="918" stroke="black"/>
<line x1="360" y1="912" x2="360" y2="918" stroke="black"/>
<line x1="440" y1="912" x2="440" y2="918" stroke="black"/>
<line x1="520" y1="912" x2="520" y2="918" stroke="black"/>
<line x1="600" y1="912" x2="600" y2="918" stroke="black"/>
<line x1="680" y1="912" x2="680" y2="918" stroke="black"/>
<line x1="760" y1="912" x2="760" y2="918" stroke="black"/>
</svg>
