<!DOCTYPE svg PUBLIC "-//W3C//DTD SVG 1.1//EN"
 "http://www.w3.org/Graphics/SVG/1.1/DTD/svg11.dtd">
<svg version="1.1"
 width="720px" height="778px"
 viewBox="0 0 720 778"
 xmlns="http://www.w3.org/2000/svg" shape-rendering="crispEdges"
 stroke-width="1" text-rendering="geometricPrecision">
<polygon fill="white" points="10,7 68,7 68,16 10,16"/>
<text x="40" y="16" textLength="56" font-family="Helvetica" font-size="12" fill="black" text-anchor="middle">

GFTP-102
</text>
<polygon fill="white" points="95,7 143,7 143,16 95,16"/>
<text x="120" y="16" textLength="47" font-family="Helvetica" font-size="12" fill="black" text-anchor="middle">

gPlazma
</text>
<polygon fill="white" points="163,7 235,7 235,16 163,16"/>
<text x="200" y="16" textLength="71" font-family="Helvetica" font-size="12" fill="black" text-anchor="middle">

PnfsManager
</text>
<polygon fill="white" points="227,7 331,7 331,16 227,16"/>
<text x="280" y="16" textLength="103" font-family="Helvetica" font-size="12" fill="black" text-anchor="middle">

SrmSpaceManager
</text>
<polygon fill="white" points="323,7 395,7 395,16 323,16"/>
<text x="360" y="16" textLength="71" font-family="Helvetica" font-size="12" fill="black" text-anchor="middle">

PoolManager
</text>
<polygon fill="white" points="411,7 467,7 467,16 411,16"/>
<text x="440" y="16" textLength="55" font-family="Helvetica" font-size="12" fill="black" text-anchor="middle">

pool_write
</text>
<polygon fill="white" points="492,7 546,7 546,16 492,16"/>
<text x="520" y="16" textLength="53" font-family="Helvetica" font-size="12" fill="black" text-anchor="middle">

broadcast
</text>
<polygon fill="white" points="557,7 641,7 641,16 557,16"/>
<text x="600" y="16" textLength="83" font-family="Helvetica" font-size="12" fill="black" text-anchor="middle">

replicaManager
</text>
<polygon fill="white" points="663,7 695,7 695,16 663,16"/>
<text x="680" y="16" textLength="31" font-family="Helvetica" font-size="12" fill="black" text-anchor="middle">

billing
</text>
<line x1="40" y1="22" x2="40" y2="50" stroke="black"/>
<line x1="120" y1="22" x2="120" y2="50" stroke="black"/>
<line x1="200" y1="22" x2="200" y2="50" stroke="black"/>
<line x1="280" y1="22" x2="280" y2="50" stroke="black"/>
<line x1="360" y1="22" x2="360" y2="50" stroke="black"/>
<line x1="440" y1="22" x2="440" y2="50" stroke="black"/>
<line x1="520" y1="22" x2="520" y2="50" stroke="black"/>
<line x1="600" y1="22" x2="600" y2="50" stroke="black"/>
<line x1="680" y1="22" x2="680" y2="50" stroke="black"/>
<line x1="40" y1="33" x2="120" y2="33" stroke="black"/>
<line x1="120" y1="33" x2="110" y2="39" stroke="black"/>
<polygon fill="white" points="64,23 95,23 95,32 64,32"/>
<text x="65" y="32" textLength="29" font-family="Helvetica" font-size="12" fill="black">
Login
</text>
<line x1="40" y1="50" x2="40" y2="78" stroke="black"/>
<line x1="120" y1="50" x2="120" y2="78" stroke="black"/>
<line x1="200" y1="50" x2="200" y2="78" stroke="black"/>
<line x1="280" y1="50" x2="280" y2="78" stroke="black"/>
<line x1="360" y1="50" x2="360" y2="78" stroke="black"/>
<line x1="440" y1="50" x2="440" y2="78" stroke="black"/>
<line x1="520" y1="50" x2="520" y2="78" stroke="black"/>
<line x1="600" y1="50" x2="600" y2="78" stroke="black"/>
<line x1="680" y1="50" x2="680" y2="78" stroke="black"/>
<line x1="120" y1="61" x2="40" y2="61" stroke="black"/>
<line x1="40" y1="61" x2="50" y2="67" stroke="black"/>
<polygon fill="white" points="64,51 95,51 95,60 64,60"/>
<text x="65" y="60" textLength="29" font-family="Helvetica" font-size="12" fill="black">
Login
</text>
<line x1="40" y1="78" x2="40" y2="106" stroke="black"/>
<line x1="120" y1="78" x2="120" y2="106" stroke="black"/>
<line x1="200" y1="78" x2="200" y2="106" stroke="black"/>
<line x1="280" y1="78" x2="280" y2="106" stroke="black"/>
<line x1="360" y1="78" x2="360" y2="106" stroke="black"/>
<line x1="440" y1="78" x2="440" y2="106" stroke="black"/>
<line x1="520" y1="78" x2="520" y2="106" stroke="black"/>
<line x1="600" y1="78" x2="600" y2="106" stroke="black"/>
<line x1="680" y1="78" x2="680" y2="106" stroke="black"/>
<line x1="40" y1="89" x2="200" y2="89" stroke="black"/>
<line x1="200" y1="89" x2="190" y2="95" stroke="black"/>
<polygon fill="white" points="86,79 152,79 152,88 86,88"/>
<text x="87" y="88" textLength="64" font-family="Helvetica" font-size="12" fill="black">
CreateEntry
</text>
<line x1="40" y1="106" x2="40" y2="134" stroke="black"/>
<line x1="120" y1="106" x2="120" y2="134" stroke="black"/>
<line x1="200" y1="106" x2="200" y2="134" stroke="black"/>
<line x1="280" y1="106" x2="280" y2="134" stroke="black"/>
<line x1="360" y1="106" x2="360" y2="134" stroke="black"/>
<line x1="440" y1="106" x2="440" y2="134" stroke="black"/>
<line x1="520" y1="106" x2="520" y2="134" stroke="black"/>
<line x1="600" y1="106" x2="600" y2="134" stroke="black"/>
<line x1="680" y1="106" x2="680" y2="134" stroke="black"/>
<line x1="200" y1="117" x2="40" y2="117" stroke="black"/>
<line x1="40" y1="117" x2="50" y2="123" stroke="black"/>
<polygon fill="white" points="86,107 152,107 152,116 86,116"/>
<text x="87" y="116" textLength="64" font-family="Helvetica" font-size="12" fill="black">
CreateEntry
</text>
<line x1="40" y1="134" x2="40" y2="162" stroke="black"/>
<line x1="120" y1="134" x2="120" y2="162" stroke="black"/>
<line x1="200" y1="134" x2="200" y2="162" stroke="black"/>
<line x1="280" y1="134" x2="280" y2="162" stroke="black"/>
<line x1="360" y1="134" x2="360" y2="162" stroke="black"/>
<line x1="440" y1="134" x2="440" y2="162" stroke="black"/>
<line x1="520" y1="134" x2="520" y2="162" stroke="black"/>
<line x1="600" y1="134" x2="600" y2="162" stroke="black"/>
<line x1="680" y1="134" x2="680" y2="162" stroke="black"/>
<line x1="40" y1="145" x2="280" y2="145" stroke="black"/>
<line x1="280" y1="145" x2="270" y2="151" stroke="black"/>
<polygon fill="white" points="116,135 203,135 203,144 116,144"/>
<text x="117" y="144" textLength="85" font-family="Helvetica" font-size="12" fill="black">
SelectWritePool
</text>
<line x1="40" y1="162" x2="40" y2="190" stroke="black"/>
<line x1="120" y1="162" x2="120" y2="190" stroke="black"/>
<line x1="200" y1="162" x2="200" y2="190" stroke="black"/>
<line x1="280" y1="162" x2="280" y2="190" stroke="black"/>
<line x1="360" y1="162" x2="360" y2="190" stroke="black"/>
<line x1="440" y1="162" x2="440" y2="190" stroke="black"/>
<line x1="520" y1="162" x2="520" y2="190" stroke="black"/>
<line x1="600" y1="162" x2="600" y2="190" stroke="black"/>
<line x1="680" y1="162" x2="680" y2="190" stroke="black"/>
<line x1="280" y1="173" x2="360" y2="173" stroke="black"/>
<line x1="360" y1="173" x2="350" y2="179" stroke="black"/>
<polygon fill="white" points="276,163 363,163 363,172 276,172"/>
<text x="277" y="172" textLength="85" font-family="Helvetica" font-size="12" fill="black">
SelectWritePool
</text>
<line x1="40" y1="190" x2="40" y2="218" stroke="black"/>
<line x1="120" y1="190" x2="120" y2="218" stroke="black"/>
<line x1="200" y1="190" x2="200" y2="218" stroke="black"/>
<line x1="280" y1="190" x2="280" y2="218" stroke="black"/>
<line x1="360" y1="190" x2="360" y2="218" stroke="black"/>
<line x1="440" y1="190" x2="440" y2="218" stroke="black"/>
<line x1="520" y1="190" x2="520" y2="218" stroke="black"/>
<line x1="600" y1="190" x2="600" y2="218" stroke="black"/>
<line x1="680" y1="190" x2="680" y2="218" stroke="black"/>
<line x1="360" y1="201" x2="280" y2="201" stroke="black"/>
<line x1="280" y1="201" x2="290" y2="207" stroke="black"/>
<polygon fill="white" points="276,191 363,191 363,200 276,200"/>
<text x="277" y="200" textLength="85" font-family="Helvetica" font-size="12" fill="black">
SelectWritePool
</text>
<line x1="40" y1="218" x2="40" y2="246" stroke="black"/>
<line x1="120" y1="218" x2="120" y2="246" stroke="black"/>
<line x1="200" y1="218" x2="200" y2="246" stroke="black"/>
<line x1="280" y1="218" x2="280" y2="246" stroke="black"/>
<line x1="360" y1="218" x2="360" y2="246" stroke="black"/>
<line x1="440" y1="218" x2="440" y2="246" stroke="black"/>
<line x1="520" y1="218" x2="520" y2="246" stroke="black"/>
<line x1="600" y1="218" x2="600" y2="246" stroke="black"/>
<line x1="680" y1="218" x2="680" y2="246" stroke="black"/>
<line x1="280" y1="229" x2="40" y2="229" stroke="black"/>
<line x1="40" y1="229" x2="50" y2="235" stroke="black"/>
<polygon fill="white" points="116,219 203,219 203,228 116,228"/>
<text x="117" y="228" textLength="85" font-family="Helvetica" font-size="12" fill="black">
SelectWritePool
</text>
<line x1="40" y1="246" x2="40" y2="274" stroke="black"/>
<line x1="120" y1="246" x2="120" y2="274" stroke="black"/>
<line x1="200" y1="246" x2="200" y2="274" stroke="black"/>
<line x1="280" y1="246" x2="280" y2="274" stroke="black"/>
<line x1="360" y1="246" x2="360" y2="274" stroke="black"/>
<line x1="440" y1="246" x2="440" y2="274" stroke="black"/>
<line x1="520" y1="246" x2="520" y2="274" stroke="black"/>
<line x1="600" y1="246" x2="600" y2="274" stroke="black"/>
<line x1="680" y1="246" x2="680" y2="274" stroke="black"/>
<line x1="40" y1="257" x2="280" y2="257" stroke="black"/>
<line x1="280" y1="257" x2="270" y2="263" stroke="black"/>
<polygon fill="white" points="118,247 200,247 200,256 118,256"/>
<text x="119" y="256" textLength="80" font-family="Helvetica" font-size="12" fill="black">
PoolAcceptFile
</text>
<line x1="40" y1="274" x2="40" y2="302" stroke="black"/>
<line x1="120" y1="274" x2="120" y2="302" stroke="black"/>
<line x1="200" y1="274" x2="200" y2="302" stroke="black"/>
<line x1="280" y1="274" x2="280" y2="302" stroke="black"/>
<line x1="360" y1="274" x2="360" y2="302" stroke="black"/>
<line x1="440" y1="274" x2="440" y2="302" stroke="black"/>
<line x1="520" y1="274" x2="520" y2="302" stroke="black"/>
<line x1="600" y1="274" x2="600" y2="302" stroke="black"/>
<line x1="680" y1="274" x2="680" y2="302" stroke="black"/>
<line x1="280" y1="285" x2="360" y2="285" stroke="black"/>
<line x1="360" y1="285" x2="350" y2="291" stroke="black"/>
<polygon fill="white" points="278,275 360,275 360,284 278,284"/>
<text x="279" y="284" textLength="80" font-family="Helvetica" font-size="12" fill="black">
PoolAcceptFile
</text>
<line x1="40" y1="302" x2="40" y2="330" stroke="black"/>
<line x1="120" y1="302" x2="120" y2="330" stroke="black"/>
<line x1="200" y1="302" x2="200" y2="330" stroke="black"/>
<line x1="280" y1="302" x2="280" y2="330" stroke="black"/>
<line x1="360" y1="302" x2="360" y2="330" stroke="black"/>
<line x1="440" y1="302" x2="440" y2="330" stroke="black"/>
<line x1="520" y1="302" x2="520" y2="330" stroke="black"/>
<line x1="600" y1="302" x2="600" y2="330" stroke="black"/>
<line x1="680" y1="302" x2="680" y2="330" stroke="black"/>
<line x1="360" y1="313" x2="440" y2="313" stroke="black"/>
<line x1="440" y1="313" x2="430" y2="319" stroke="black"/>
<polygon fill="white" points="358,303 440,303 440,312 358,312"/>
<text x="359" y="312" textLength="80" font-family="Helvetica" font-size="12" fill="black">
PoolAcceptFile
</text>
<line x1="40" y1="330" x2="40" y2="358" stroke="black"/>
<line x1="120" y1="330" x2="120" y2="358" stroke="black"/>
<line x1="200" y1="330" x2="200" y2="358" stroke="black"/>
<line x1="280" y1="330" x2="280" y2="358" stroke="black"/>
<line x1="360" y1="330" x2="360" y2="358" stroke="black"/>
<line x1="440" y1="330" x2="440" y2="358" stroke="black"/>
<line x1="520" y1="330" x2="520" y2="358" stroke="black"/>
<line x1="600" y1="330" x2="600" y2="358" stroke="black"/>
<line x1="680" y1="330" x2="680" y2="358" stroke="black"/>
<line x1="440" y1="341" x2="360" y2="341" stroke="black"/>
<line x1="360" y1="341" x2="370" y2="347" stroke="black"/>
<polygon fill="white" points="358,331 440,331 440,340 358,340"/>
<text x="359" y="340" textLength="80" font-family="Helvetica" font-size="12" fill="black">
PoolAcceptFile
</text>
<line x1="40" y1="358" x2="40" y2="386" stroke="black"/>
<line x1="120" y1="358" x2="120" y2="386" stroke="black"/>
<line x1="200" y1="358" x2="200" y2="386" stroke="black"/>
<line x1="280" y1="358" x2="280" y2="386" stroke="black"/>
<line x1="360" y1="358" x2="360" y2="386" stroke="black"/>
<line x1="440" y1="358" x2="440" y2="386" stroke="black"/>
<line x1="520" y1="358" x2="520" y2="386" stroke="black"/>
<line x1="600" y1="358" x2="600" y2="386" stroke="black"/>
<line x1="680" y1="358" x2="680" y2="386" stroke="black"/>
<line x1="360" y1="369" x2="280" y2="369" stroke="black"/>
<line x1="280" y1="369" x2="290" y2="375" stroke="black"/>
<polygon fill="white" points="278,359 360,359 360,368 278,368"/>
<text x="279" y="368" textLength="80" font-family="Helvetica" font-size="12" fill="black">
PoolAcceptFile
</text>
<line x1="40" y1="386" x2="40" y2="414" stroke="black"/>
<line x1="120" y1="386" x2="120" y2="414" stroke="black"/>
<line x1="200" y1="386" x2="200" y2="414" stroke="black"/>
<line x1="280" y1="386" x2="280" y2="414" stroke="black"/>
<line x1="360" y1="386" x2="360" y2="414" stroke="black"/>
<line x1="440" y1="386" x2="440" y2="414" stroke="black"/>
<line x1="520" y1="386" x2="520" y2="414" stroke="black"/>
<line x1="600" y1="386" x2="600" y2="414" stroke="black"/>
<line x1="680" y1="386" x2="680" y2="414" stroke="black"/>
<line x1="280" y1="397" x2="40" y2="397" stroke="black"/>
<line x1="40" y1="397" x2="50" y2="403" stroke="black"/>
<polygon fill="white" points="118,387 200,387 200,396 118,396"/>
<text x="119" y="396" textLength="80" font-family="Helvetica" font-size="12" fill="black">
PoolAcceptFile
</text>
<line x1="40" y1="414" x2="40" y2="442" stroke="black"/>
<line x1="120" y1="414" x2="120" y2="442" stroke="black"/>
<line x1="200" y1="414" x2="200" y2="442" stroke="black"/>
<line x1="280" y1="414" x2="280" y2="442" stroke="black"/>
<line x1="360" y1="414" x2="360" y2="442" stroke="black"/>
<line x1="440" y1="414" x2="440" y2="442" stroke="black"/>
<line x1="520" y1="414" x2="520" y2="442" stroke="black"/>
<line x1="600" y1="414" x2="600" y2="442" stroke="black"/>
<line x1="680" y1="414" x2="680" y2="442" stroke="black"/>
<line x1="440" y1="425" x2="200" y2="425" stroke="black"/>
<line x1="200" y1="425" x2="210" y2="431" stroke="black"/>
<polygon fill="white" points="274,415 365,415 365,424 274,424"/>
<text x="275" y="424" textLength="89" font-family="Helvetica" font-size="12" fill="black">
GetFileAttributes
</text>
<line x1="40" y1="442" x2="40" y2="470" stroke="black"/>
<line x1="120" y1="442" x2="120" y2="470" stroke="black"/>
<line x1="200" y1="442" x2="200" y2="470" stroke="black"/>
<line x1="280" y1="442" x2="280" y2="470" stroke="black"/>
<line x1="360" y1="442" x2="360" y2="470" stroke="black"/>
<line x1="440" y1="442" x2="440" y2="470" stroke="black"/>
<line x1="520" y1="442" x2="520" y2="470" stroke="black"/>
<line x1="600" y1="442" x2="600" y2="470" stroke="black"/>
<line x1="680" y1="442" x2="680" y2="470" stroke="black"/>
<line x1="200" y1="453" x2="440" y2="453" stroke="black"/>
<line x1="440" y1="453" x2="430" y2="459" stroke="black"/>
<polygon fill="white" points="274,443 365,443 365,452 274,452"/>
<text x="275" y="452" textLength="89" font-family="Helvetica" font-size="12" fill="black">
GetFileAttributes
</text>
<line x1="40" y1="470" x2="40" y2="498" stroke="black"/>
<line x1="120" y1="470" x2="120" y2="498" stroke="black"/>
<line x1="200" y1="470" x2="200" y2="498" stroke="black"/>
<line x1="280" y1="470" x2="280" y2="498" stroke="black"/>
<line x1="360" y1="470" x2="360" y2="498" stroke="black"/>
<line x1="440" y1="470" x2="440" y2="498" stroke="black"/>
<line x1="520" y1="470" x2="520" y2="498" stroke="black"/>
<line x1="600" y1="470" x2="600" y2="498" stroke="black"/>
<line x1="680" y1="470" x2="680" y2="498" stroke="black"/>
<line x1="440" y1="481" x2="200" y2="481" stroke="black"/>
<line x1="200" y1="481" x2="210" y2="487" stroke="black"/>
<polygon fill="white" points="281,471 358,471 358,480 281,480"/>
<text x="282" y="480" textLength="75" font-family="Helvetica" font-size="12" fill="black">
SetChecksum
</text>
<line x1="40" y1="498" x2="40" y2="526" stroke="black"/>
<line x1="120" y1="498" x2="120" y2="526" stroke="black"/>
<line x1="200" y1="498" x2="200" y2="526" stroke="black"/>
<line x1="280" y1="498" x2="280" y2="526" stroke="black"/>
<line x1="360" y1="498" x2="360" y2="526" stroke="black"/>
<line x1="440" y1="498" x2="440" y2="526" stroke="black"/>
<line x1="520" y1="498" x2="520" y2="526" stroke="black"/>
<line x1="600" y1="498" x2="600" y2="526" stroke="black"/>
<line x1="680" y1="498" x2="680" y2="526" stroke="black"/>
<line x1="200" y1="509" x2="440" y2="509" stroke="black"/>
<line x1="440" y1="509" x2="430" y2="515" stroke="black"/>
<polygon fill="white" points="281,499 358,499 358,508 281,508"/>
<text x="282" y="508" textLength="75" font-family="Helvetica" font-size="12" fill="black">
SetChecksum
</text>
<line x1="40" y1="526" x2="40" y2="554" stroke="black"/>
<line x1="120" y1="526" x2="120" y2="554" stroke="black"/>
<line x1="200" y1="526" x2="200" y2="554" stroke="black"/>
<line x1="280" y1="526" x2="280" y2="554" stroke="black"/>
<line x1="360" y1="526" x2="360" y2="554" stroke="black"/>
<line x1="440" y1="526" x2="440" y2="554" stroke="black"/>
<line x1="520" y1="526" x2="520" y2="554" stroke="black"/>
<line x1="600" y1="526" x2="600" y2="554" stroke="black"/>
<line x1="680" y1="526" x2="680" y2="554" stroke="black"/>
<line x1="440" y1="537" x2="200" y2="537" stroke="black"/>
<line x1="200" y1="537" x2="210" y2="543" stroke="black"/>
<polygon fill="white" points="274,527 364,527 364,536 274,536"/>
<text x="275" y="536" textLength="88" font-family="Helvetica" font-size="12" fill="black">
SetFileAttributes
</text>
<line x1="40" y1="554" x2="40" y2="582" stroke="black"/>
<line x1="120" y1="554" x2="120" y2="582" stroke="black"/>
<line x1="200" y1="554" x2="200" y2="582" stroke="black"/>
<line x1="280" y1="554" x2="280" y2="582" stroke="black"/>
<line x1="360" y1="554" x2="360" y2="582" stroke="black"/>
<line x1="440" y1="554" x2="440" y2="582" stroke="black"/>
<line x1="520" y1="554" x2="520" y2="582" stroke="black"/>
<line x1="600" y1="554" x2="600" y2="582" stroke="black"/>
<line x1="680" y1="554" x2="680" y2="582" stroke="black"/>
<line x1="200" y1="565" x2="520" y2="565" stroke="black"/>
<line x1="520" y1="565" x2="510" y2="571" stroke="black"/>
<polygon fill="white" points="308,555 411,555 411,564 308,564"/>
<text x="309" y="564" textLength="101" font-family="Helvetica" font-size="12" fill="black">
AddCacheLocation
</text>
<line x1="40" y1="582" x2="40" y2="610" stroke="black"/>
<line x1="120" y1="582" x2="120" y2="610" stroke="black"/>
<line x1="200" y1="582" x2="200" y2="610" stroke="black"/>
<line x1="280" y1="582" x2="280" y2="610" stroke="black"/>
<line x1="360" y1="582" x2="360" y2="610" stroke="black"/>
<line x1="440" y1="582" x2="440" y2="610" stroke="black"/>
<line x1="520" y1="582" x2="520" y2="610" stroke="black"/>
<line x1="600" y1="582" x2="600" y2="610" stroke="black"/>
<line x1="680" y1="582" x2="680" y2="610" stroke="black"/>
<line x1="520" y1="593" x2="600" y2="593" stroke="black"/>
<line x1="600" y1="593" x2="590" y2="599" stroke="black"/>
<polygon fill="white" points="508,583 611,583 611,592 508,592"/>
<text x="509" y="592" textLength="101" font-family="Helvetica" font-size="12" fill="black">
AddCacheLocation
</text>
<line x1="40" y1="610" x2="40" y2="638" stroke="black"/>
<line x1="120" y1="610" x2="120" y2="638" stroke="black"/>
<line x1="200" y1="610" x2="200" y2="638" stroke="black"/>
<line x1="280" y1="610" x2="280" y2="638" stroke="black"/>
<line x1="360" y1="610" x2="360" y2="638" stroke="black"/>
<line x1="440" y1="610" x2="440" y2="638" stroke="black"/>
<line x1="520" y1="610" x2="520" y2="638" stroke="black"/>
<line x1="600" y1="610" x2="600" y2="638" stroke="black"/>
<line x1="680" y1="610" x2="680" y2="638" stroke="black"/>
<line x1="200" y1="621" x2="440" y2="621" stroke="black"/>
<line x1="440" y1="621" x2="430" y2="627" stroke="black"/>
<polygon fill="white" points="274,611 364,611 364,620 274,620"/>
<text x="275" y="620" textLength="88" font-family="Helvetica" font-size="12" fill="black">
SetFileAttributes
</text>
<line x1="40" y1="638" x2="40" y2="666" stroke="black"/>
<line x1="120" y1="638" x2="120" y2="666" stroke="black"/>
<line x1="200" y1="638" x2="200" y2="666" stroke="black"/>
<line x1="280" y1="638" x2="280" y2="666" stroke="black"/>
<line x1="360" y1="638" x2="360" y2="666" stroke="black"/>
<line x1="440" y1="638" x2="440" y2="666" stroke="black"/>
<line x1="520" y1="638" x2="520" y2="666" stroke="black"/>
<line x1="600" y1="638" x2="600" y2="666" stroke="black"/>
<line x1="680" y1="638" x2="680" y2="666" stroke="black"/>
<line x1="440" y1="649" x2="680" y2="649" stroke="black"/>
<line x1="680" y1="649" x2="670" y2="655" stroke="black"/>
<polygon fill="white" points="532,639 587,639 587,648 532,648"/>
<text x="533" y="648" textLength="53" font-family="Helvetica" font-size="12" fill="black">
MoverInfo
</text>
<line x1="40" y1="666" x2="40" y2="694" stroke="black"/>
<line x1="120" y1="666" x2="120" y2="694" stroke="black"/>
<line x1="200" y1="666" x2="200" y2="694" stroke="black"/>
<line x1="280" y1="666" x2="280" y2="694" stroke="black"/>
<line x1="360" y1="666" x2="360" y2="694" stroke="black"/>
<line x1="440" y1="666" x2="440" y2="694" stroke="black"/>
<line x1="520" y1="666" x2="520" y2="694" stroke="black"/>
<line x1="600" y1="666" x2="600" y2="694" stroke="black"/>
<line x1="680" y1="666" x2="680" y2="694" stroke="black"/>
<line x1="440" y1="677" x2="360" y2="677" stroke="black"/>
<line x1="360" y1="677" x2="370" y2="683" stroke="black"/>
<polygon fill="white" points="353,667 445,667 445,676 353,676"/>
<text x="354" y="676" textLength="90" font-family="Helvetica" font-size="12" fill="black">
TransferFinished
</text>
<line x1="40" y1="694" x2="40" y2="722" stroke="black"/>
<line x1="120" y1="694" x2="120" y2="722" stroke="black"/>
<line x1="200" y1="694" x2="200" y2="722" stroke="black"/>
<line x1="280" y1="694" x2="280" y2="722" stroke="black"/>
<line x1="360" y1="694" x2="360" y2="722" stroke="black"/>
<line x1="440" y1="694" x2="440" y2="722" stroke="black"/>
<line x1="520" y1="694" x2="520" y2="722" stroke="black"/>
<line x1="600" y1="694" x2="600" y2="722" stroke="black"/>
<line x1="680" y1="694" x2="680" y2="722" stroke="black"/>
<line x1="360" y1="705" x2="280" y2="705" stroke="black"/>
<line x1="280" y1="705" x2="290" y2="711" stroke="black"/>
<polygon fill="white" points="273,695 365,695 365,704 273,704"/>
<text x="274" y="704" textLength="90" font-family="Helvetica" font-size="12" fill="black">
TransferFinished
</text>
<line x1="40" y1="722" x2="40" y2="750" stroke="black"/>
<line x1="120" y1="722" x2="120" y2="750" stroke="black"/>
<line x1="200" y1="722" x2="200" y2="750" stroke="black"/>
<line x1="280" y1="722" x2="280" y2="750" stroke="black"/>
<line x1="360" y1="722" x2="360" y2="750" stroke="black"/>
<line x1="440" y1="722" x2="440" y2="750" stroke="black"/>
<line x1="520" y1="722" x2="520" y2="750" stroke="black"/>
<line x1="600" y1="722" x2="600" y2="750" stroke="black"/>
<line x1="680" y1="722" x2="680" y2="750" stroke="black"/>
<line x1="280" y1="733" x2="40" y2="733" stroke="black"/>
<line x1="40" y1="733" x2="50" y2="739" stroke="black"/>
<polygon fill="white" points="113,723 205,723 205,732 113,732"/>
<text x="114" y="732" textLength="90" font-family="Helvetica" font-size="12" fill="black">
TransferFinished
</text>
<line x1="40" y1="750" x2="40" y2="778" stroke="black"/>
<line x1="120" y1="750" x2="120" y2="778" stroke="black"/>
<line x1="200" y1="750" x2="200" y2="778" stroke="black"/>
<line x1="280" y1="750" x2="280" y2="778" stroke="black"/>
<line x1="360" y1="750" x2="360" y2="778" stroke="black"/>
<line x1="440" y1="750" x2="440" y2="778" stroke="black"/>
<line x1="520" y1="750" x2="520" y2="778" stroke="black"/>
<line x1="600" y1="750" x2="600" y2="778" stroke="black"/>
<line x1="680" y1="750" x2="680" y2="778" stroke="black"/>
<line x1="40" y1="761" x2="680" y2="761" stroke="black"/>
<line x1="680" y1="761" x2="670" y2="767" stroke="black"/>
<polygon fill="white" points="326,751 393,751 393,760 326,760"/>
<text x="327" y="760" textLength="65" font-family="Helvetica" font-size="12" fill="black">
RequestInfo
</text>
<line x1="40" y1="772" x2="40" y2="778" stroke="black"/>
<line x1="120" y1="772" x2="120" y2="778" stroke="black"/>
<line x1="200" y1="772" x2="200" y2="778" stroke="black"/>
<line x1="280" y1="772" x2="280" y2="778" stroke="black"/>
<line x1="360" y1="772" x2="360" y2="778" stroke="black"/>
<line x1="440" y1="772" x2="440" y2="778" stroke="black"/>
<line x1="520" y1="772" x2="520" y2="778" stroke="black"/>
<line x1="600" y1="772" x2="600" y2="778" stroke="black"/>
<line x1="680" y1="772" x2="680" y2="778" stroke="black"/>
</svg>
