<!DOCTYPE svg PUBLIC "-//W3C//DTD SVG 1.1//EN"
 "http://www.w3.org/Graphics/SVG/1.1/DTD/svg11.dtd">
<svg version="1.1"
 width="880px" height="1198px"
 viewBox="0 0 880 1198"
 xmlns="http://www.w3.org/2000/svg" shape-rendering="crispEdges"
 stroke-width="1" text-rendering="geometricPrecision">
<polygon fill="white" points="25,7 53,7 53,16 25,16"/>
<text x="40" y="16" textLength="27" font-family="Helvetica" font-size="12" fill="black" text-anchor="middle">

SRM
</text>
<polygon fill="white" points="86,7 152,7 152,16 86,16"/>
<text x="120" y="16" textLength="65" font-family="Helvetica" font-size="12" fill="black" text-anchor="middle">

LoginBroker
</text>
<polygon fill="white" points="163,7 235,7 235,16 163,16"/>
<text x="200" y="16" textLength="71" font-family="Helvetica" font-size="12" fill="black" text-anchor="middle">

PnfsManager
</text>
<polygon fill="white" points="250,7 308,7 308,16 250,16"/>
<text x="280" y="16" textLength="56" font-family="Helvetica" font-size="12" fill="black" text-anchor="middle">

GFTP-113
</text>
<polygon fill="white" points="335,7 383,7 383,16 335,16"/>
<text x="360" y="16" textLength="47" font-family="Helvetica" font-size="12" fill="black" text-anchor="middle">

gPlazma
</text>
<polygon fill="white" points="387,7 491,7 491,16 387,16"/>
<text x="440" y="16" textLength="103" font-family="Helvetica" font-size="12" fill="black" text-anchor="middle">

SrmSpaceManager
</text>
<polygon fill="white" points="483,7 555,7 555,16 483,16"/>
<text x="520" y="16" textLength="71" font-family="Helvetica" font-size="12" fill="black" text-anchor="middle">

PoolManager
</text>
<polygon fill="white" points="571,7 627,7 627,16 571,16"/>
<text x="600" y="16" textLength="55" font-family="Helvetica" font-size="12" fill="black" text-anchor="middle">

pool_write
</text>
<polygon fill="white" points="652,7 706,7 706,16 652,16"/>
<text x="680" y="16" textLength="53" font-family="Helvetica" font-size="12" fill="black" text-anchor="middle">

broadcast
</text>
<polygon fill="white" points="717,7 801,7 801,16 717,16"/>
<text x="760" y="16" textLength="83" font-family="Helvetica" font-size="12" fill="black" text-anchor="middle">

replicaManager
</text>
<polygon fill="white" points="823,7 855,7 855,16 823,16"/>
<text x="840" y="16" textLength="31" font-family="Helvetica" font-size="12" fill="black" text-anchor="middle">

billing
</text>
<line x1="40" y1="22" x2="40" y2="50" stroke="black"/>
<line x1="120" y1="22" x2="120" y2="50" stroke="black"/>
<line x1="200" y1="22" x2="200" y2="50" stroke="black"/>
<line x1="280" y1="22" x2="280" y2="50" stroke="black"/>
<line x1="360" y1="22" x2="360" y2="50" stroke="black"/>
<line x1="440" y1="22" x2="440" y2="50" stroke="black"/>
<line x1="520" y1="22" x2="520" y2="50" stroke="black"/>
<line x1="600" y1="22" x2="600" y2="50" stroke="black"/>
<line x1="680" y1="22" x2="680" y2="50" stroke="black"/>
<line x1="760" y1="22" x2="760" y2="50" stroke="black"/>
<line x1="840" y1="22" x2="840" y2="50" stroke="black"/>
<line x1="40" y1="33" x2="120" y2="33" stroke="black"/>
<line x1="120" y1="33" x2="110" y2="39" stroke="black"/>
<polygon fill="white" points="54,23 105,23 105,32 54,32"/>
<text x="55" y="32" textLength="49" font-family="Helvetica" font-size="12" fill="black">
ls -binary
</text>
<line x1="40" y1="50" x2="40" y2="78" stroke="black"/>
<line x1="120" y1="50" x2="120" y2="78" stroke="black"/>
<line x1="200" y1="50" x2="200" y2="78" stroke="black"/>
<line x1="280" y1="50" x2="280" y2="78" stroke="black"/>
<line x1="360" y1="50" x2="360" y2="78" stroke="black"/>
<line x1="440" y1="50" x2="440" y2="78" stroke="black"/>
<line x1="520" y1="50" x2="520" y2="78" stroke="black"/>
<line x1="600" y1="50" x2="600" y2="78" stroke="black"/>
<line x1="680" y1="50" x2="680" y2="78" stroke="black"/>
<line x1="760" y1="50" x2="760" y2="78" stroke="black"/>
<line x1="840" y1="50" x2="840" y2="78" stroke="black"/>
<line x1="120" y1="61" x2="40" y2="61" stroke="black"/>
<line x1="40" y1="61" x2="50" y2="67" stroke="black"/>
<polygon fill="white" points="33,51 126,51 126,60 33,60"/>
<text x="34" y="60" textLength="91" font-family="Helvetica" font-size="12" fill="black">
LoginBrokerInfo[]
</text>
<line x1="40" y1="78" x2="40" y2="106" stroke="black"/>
<line x1="120" y1="78" x2="120" y2="106" stroke="black"/>
<line x1="200" y1="78" x2="200" y2="106" stroke="black"/>
<line x1="280" y1="78" x2="280" y2="106" stroke="black"/>
<line x1="360" y1="78" x2="360" y2="106" stroke="black"/>
<line x1="440" y1="78" x2="440" y2="106" stroke="black"/>
<line x1="520" y1="78" x2="520" y2="106" stroke="black"/>
<line x1="600" y1="78" x2="600" y2="106" stroke="black"/>
<line x1="680" y1="78" x2="680" y2="106" stroke="black"/>
<line x1="760" y1="78" x2="760" y2="106" stroke="black"/>
<line x1="840" y1="78" x2="840" y2="106" stroke="black"/>
<line x1="40" y1="89" x2="200" y2="89" stroke="black"/>
<line x1="200" y1="89" x2="190" y2="95" stroke="black"/>
<polygon fill="white" points="94,79 144,79 144,88 94,88"/>
<text x="95" y="88" textLength="48" font-family="Helvetica" font-size="12" fill="black">
MapPath
</text>
<line x1="40" y1="106" x2="40" y2="134" stroke="black"/>
<line x1="120" y1="106" x2="120" y2="134" stroke="black"/>
<line x1="200" y1="106" x2="200" y2="134" stroke="black"/>
<line x1="280" y1="106" x2="280" y2="134" stroke="black"/>
<line x1="360" y1="106" x2="360" y2="134" stroke="black"/>
<line x1="440" y1="106" x2="440" y2="134" stroke="black"/>
<line x1="520" y1="106" x2="520" y2="134" stroke="black"/>
<line x1="600" y1="106" x2="600" y2="134" stroke="black"/>
<line x1="680" y1="106" x2="680" y2="134" stroke="black"/>
<line x1="760" y1="106" x2="760" y2="134" stroke="black"/>
<line x1="840" y1="106" x2="840" y2="134" stroke="black"/>
<line x1="200" y1="117" x2="40" y2="117" stroke="black"/>
<line x1="40" y1="117" x2="50" y2="123" stroke="black"/>
<polygon fill="white" points="94,107 144,107 144,116 94,116"/>
<text x="95" y="116" textLength="48" font-family="Helvetica" font-size="12" fill="black">
MapPath
</text>
<line x1="40" y1="134" x2="40" y2="162" stroke="black"/>
<line x1="120" y1="134" x2="120" y2="162" stroke="black"/>
<line x1="200" y1="134" x2="200" y2="162" stroke="black"/>
<line x1="280" y1="134" x2="280" y2="162" stroke="black"/>
<line x1="360" y1="134" x2="360" y2="162" stroke="black"/>
<line x1="440" y1="134" x2="440" y2="162" stroke="black"/>
<line x1="520" y1="134" x2="520" y2="162" stroke="black"/>
<line x1="600" y1="134" x2="600" y2="162" stroke="black"/>
<line x1="680" y1="134" x2="680" y2="162" stroke="black"/>
<line x1="760" y1="134" x2="760" y2="162" stroke="black"/>
<line x1="840" y1="134" x2="840" y2="162" stroke="black"/>
<line x1="40" y1="145" x2="200" y2="145" stroke="black"/>
<line x1="200" y1="145" x2="190" y2="151" stroke="black"/>
<polygon fill="white" points="78,135 161,135 161,144 78,144"/>
<text x="79" y="144" textLength="81" font-family="Helvetica" font-size="12" fill="black">
GetStorageInfo
</text>
<line x1="40" y1="162" x2="40" y2="190" stroke="black"/>
<line x1="120" y1="162" x2="120" y2="190" stroke="black"/>
<line x1="200" y1="162" x2="200" y2="190" stroke="black"/>
<line x1="280" y1="162" x2="280" y2="190" stroke="black"/>
<line x1="360" y1="162" x2="360" y2="190" stroke="black"/>
<line x1="440" y1="162" x2="440" y2="190" stroke="black"/>
<line x1="520" y1="162" x2="520" y2="190" stroke="black"/>
<line x1="600" y1="162" x2="600" y2="190" stroke="black"/>
<line x1="680" y1="162" x2="680" y2="190" stroke="black"/>
<line x1="760" y1="162" x2="760" y2="190" stroke="black"/>
<line x1="840" y1="162" x2="840" y2="190" stroke="black"/>
<line x1="200" y1="173" x2="40" y2="173" stroke="black"/>
<line x1="40" y1="173" x2="50" y2="179" stroke="black"/>
<polygon fill="white" points="78,163 161,163 161,172 78,172"/>
<text x="79" y="172" textLength="81" font-family="Helvetica" font-size="12" fill="black">
GetStorageInfo
</text>
<line x1="40" y1="190" x2="40" y2="218" stroke="black"/>
<line x1="120" y1="190" x2="120" y2="218" stroke="black"/>
<line x1="200" y1="190" x2="200" y2="218" stroke="black"/>
<line x1="280" y1="190" x2="280" y2="218" stroke="black"/>
<line x1="360" y1="190" x2="360" y2="218" stroke="black"/>
<line x1="440" y1="190" x2="440" y2="218" stroke="black"/>
<line x1="520" y1="190" x2="520" y2="218" stroke="black"/>
<line x1="600" y1="190" x2="600" y2="218" stroke="black"/>
<line x1="680" y1="190" x2="680" y2="218" stroke="black"/>
<line x1="760" y1="190" x2="760" y2="218" stroke="black"/>
<line x1="840" y1="190" x2="840" y2="218" stroke="black"/>
<line x1="40" y1="201" x2="200" y2="201" stroke="black"/>
<line x1="200" y1="201" x2="190" y2="207" stroke="black"/>
<polygon fill="white" points="73,191 166,191 166,200 73,200"/>
<text x="74" y="200" textLength="91" font-family="Helvetica" font-size="12" fill="black">
GetFileMetaData
</text>
<line x1="40" y1="218" x2="40" y2="246" stroke="black"/>
<line x1="120" y1="218" x2="120" y2="246" stroke="black"/>
<line x1="200" y1="218" x2="200" y2="246" stroke="black"/>
<line x1="280" y1="218" x2="280" y2="246" stroke="black"/>
<line x1="360" y1="218" x2="360" y2="246" stroke="black"/>
<line x1="440" y1="218" x2="440" y2="246" stroke="black"/>
<line x1="520" y1="218" x2="520" y2="246" stroke="black"/>
<line x1="600" y1="218" x2="600" y2="246" stroke="black"/>
<line x1="680" y1="218" x2="680" y2="246" stroke="black"/>
<line x1="760" y1="218" x2="760" y2="246" stroke="black"/>
<line x1="840" y1="218" x2="840" y2="246" stroke="black"/>
<line x1="200" y1="229" x2="40" y2="229" stroke="black"/>
<line x1="40" y1="229" x2="50" y2="235" stroke="black"/>
<polygon fill="white" points="73,219 166,219 166,228 73,228"/>
<text x="74" y="228" textLength="91" font-family="Helvetica" font-size="12" fill="black">
GetFileMetaData
</text>
<line x1="40" y1="246" x2="40" y2="274" stroke="black"/>
<line x1="120" y1="246" x2="120" y2="274" stroke="black"/>
<line x1="200" y1="246" x2="200" y2="274" stroke="black"/>
<line x1="280" y1="246" x2="280" y2="274" stroke="black"/>
<line x1="360" y1="246" x2="360" y2="274" stroke="black"/>
<line x1="440" y1="246" x2="440" y2="274" stroke="black"/>
<line x1="520" y1="246" x2="520" y2="274" stroke="black"/>
<line x1="600" y1="246" x2="600" y2="274" stroke="black"/>
<line x1="680" y1="246" x2="680" y2="274" stroke="black"/>
<line x1="760" y1="246" x2="760" y2="274" stroke="black"/>
<line x1="840" y1="246" x2="840" y2="274" stroke="black"/>
<line x1="40" y1="257" x2="200" y2="257" stroke="black"/>
<line x1="200" y1="257" x2="190" y2="263" stroke="black"/>
<polygon fill="white" points="76,247 162,247 162,256 76,256"/>
<text x="77" y="256" textLength="84" font-family="Helvetica" font-size="12" fill="black">
CreateDirectory
</text>
<line x1="40" y1="274" x2="40" y2="302" stroke="black"/>
<line x1="120" y1="274" x2="120" y2="302" stroke="black"/>
<line x1="200" y1="274" x2="200" y2="302" stroke="black"/>
<line x1="280" y1="274" x2="280" y2="302" stroke="black"/>
<line x1="360" y1="274" x2="360" y2="302" stroke="black"/>
<line x1="440" y1="274" x2="440" y2="302" stroke="black"/>
<line x1="520" y1="274" x2="520" y2="302" stroke="black"/>
<line x1="600" y1="274" x2="600" y2="302" stroke="black"/>
<line x1="680" y1="274" x2="680" y2="302" stroke="black"/>
<line x1="760" y1="274" x2="760" y2="302" stroke="black"/>
<line x1="840" y1="274" x2="840" y2="302" stroke="black"/>
<line x1="200" y1="285" x2="40" y2="285" stroke="black"/>
<line x1="40" y1="285" x2="50" y2="291" stroke="black"/>
<polygon fill="white" points="76,275 162,275 162,284 76,284"/>
<text x="77" y="284" textLength="84" font-family="Helvetica" font-size="12" fill="black">
CreateDirectory
</text>
<line x1="40" y1="302" x2="40" y2="330" stroke="black"/>
<line x1="120" y1="302" x2="120" y2="330" stroke="black"/>
<line x1="200" y1="302" x2="200" y2="330" stroke="black"/>
<line x1="280" y1="302" x2="280" y2="330" stroke="black"/>
<line x1="360" y1="302" x2="360" y2="330" stroke="black"/>
<line x1="440" y1="302" x2="440" y2="330" stroke="black"/>
<line x1="520" y1="302" x2="520" y2="330" stroke="black"/>
<line x1="600" y1="302" x2="600" y2="330" stroke="black"/>
<line x1="680" y1="302" x2="680" y2="330" stroke="black"/>
<line x1="760" y1="302" x2="760" y2="330" stroke="black"/>
<line x1="840" y1="302" x2="840" y2="330" stroke="black"/>
<line x1="40" y1="313" x2="120" y2="313" stroke="black"/>
<line x1="120" y1="313" x2="110" y2="319" stroke="black"/>
<polygon fill="white" points="11,303 147,303 147,312 11,312"/>
<text x="12" y="312" textLength="134" font-family="Helvetica" font-size="12" fill="black">
ls -binary -protocol=gsiftp
</text>
<line x1="40" y1="330" x2="40" y2="358" stroke="black"/>
<line x1="120" y1="330" x2="120" y2="358" stroke="black"/>
<line x1="200" y1="330" x2="200" y2="358" stroke="black"/>
<line x1="280" y1="330" x2="280" y2="358" stroke="black"/>
<line x1="360" y1="330" x2="360" y2="358" stroke="black"/>
<line x1="440" y1="330" x2="440" y2="358" stroke="black"/>
<line x1="520" y1="330" x2="520" y2="358" stroke="black"/>
<line x1="600" y1="330" x2="600" y2="358" stroke="black"/>
<line x1="680" y1="330" x2="680" y2="358" stroke="black"/>
<line x1="760" y1="330" x2="760" y2="358" stroke="black"/>
<line x1="840" y1="330" x2="840" y2="358" stroke="black"/>
<line x1="120" y1="341" x2="40" y2="341" stroke="black"/>
<line x1="40" y1="341" x2="50" y2="347" stroke="black"/>
<polygon fill="white" points="33,331 126,331 126,340 33,340"/>
<text x="34" y="340" textLength="91" font-family="Helvetica" font-size="12" fill="black">
LoginBrokerInfo[]
</text>
<line x1="40" y1="358" x2="40" y2="386" stroke="black"/>
<line x1="120" y1="358" x2="120" y2="386" stroke="black"/>
<line x1="200" y1="358" x2="200" y2="386" stroke="black"/>
<line x1="280" y1="358" x2="280" y2="386" stroke="black"/>
<line x1="360" y1="358" x2="360" y2="386" stroke="black"/>
<line x1="440" y1="358" x2="440" y2="386" stroke="black"/>
<line x1="520" y1="358" x2="520" y2="386" stroke="black"/>
<line x1="600" y1="358" x2="600" y2="386" stroke="black"/>
<line x1="680" y1="358" x2="680" y2="386" stroke="black"/>
<line x1="760" y1="358" x2="760" y2="386" stroke="black"/>
<line x1="840" y1="358" x2="840" y2="386" stroke="black"/>
<line x1="280" y1="369" x2="360" y2="369" stroke="black"/>
<line x1="360" y1="369" x2="350" y2="375" stroke="black"/>
<polygon fill="white" points="304,359 335,359 335,368 304,368"/>
<text x="305" y="368" textLength="29" font-family="Helvetica" font-size="12" fill="black">
Login
</text>
<line x1="40" y1="386" x2="40" y2="414" stroke="black"/>
<line x1="120" y1="386" x2="120" y2="414" stroke="black"/>
<line x1="200" y1="386" x2="200" y2="414" stroke="black"/>
<line x1="280" y1="386" x2="280" y2="414" stroke="black"/>
<line x1="360" y1="386" x2="360" y2="414" stroke="black"/>
<line x1="440" y1="386" x2="440" y2="414" stroke="black"/>
<line x1="520" y1="386" x2="520" y2="414" stroke="black"/>
<line x1="600" y1="386" x2="600" y2="414" stroke="black"/>
<line x1="680" y1="386" x2="680" y2="414" stroke="black"/>
<line x1="760" y1="386" x2="760" y2="414" stroke="black"/>
<line x1="840" y1="386" x2="840" y2="414" stroke="black"/>
<line x1="360" y1="397" x2="280" y2="397" stroke="black"/>
<line x1="280" y1="397" x2="290" y2="403" stroke="black"/>
<polygon fill="white" points="304,387 335,387 335,396 304,396"/>
<text x="305" y="396" textLength="29" font-family="Helvetica" font-size="12" fill="black">
Login
</text>
<line x1="40" y1="414" x2="40" y2="442" stroke="black"/>
<line x1="120" y1="414" x2="120" y2="442" stroke="black"/>
<line x1="200" y1="414" x2="200" y2="442" stroke="black"/>
<line x1="280" y1="414" x2="280" y2="442" stroke="black"/>
<line x1="360" y1="414" x2="360" y2="442" stroke="black"/>
<line x1="440" y1="414" x2="440" y2="442" stroke="black"/>
<line x1="520" y1="414" x2="520" y2="442" stroke="black"/>
<line x1="600" y1="414" x2="600" y2="442" stroke="black"/>
<line x1="680" y1="414" x2="680" y2="442" stroke="black"/>
<line x1="760" y1="414" x2="760" y2="442" stroke="black"/>
<line x1="840" y1="414" x2="840" y2="442" stroke="black"/>
<line x1="280" y1="425" x2="200" y2="425" stroke="black"/>
<line x1="200" y1="425" x2="210" y2="431" stroke="black"/>
<polygon fill="white" points="206,415 272,415 272,424 206,424"/>
<text x="207" y="424" textLength="64" font-family="Helvetica" font-size="12" fill="black">
CreateEntry
</text>
<line x1="40" y1="442" x2="40" y2="470" stroke="black"/>
<line x1="120" y1="442" x2="120" y2="470" stroke="black"/>
<line x1="200" y1="442" x2="200" y2="470" stroke="black"/>
<line x1="280" y1="442" x2="280" y2="470" stroke="black"/>
<line x1="360" y1="442" x2="360" y2="470" stroke="black"/>
<line x1="440" y1="442" x2="440" y2="470" stroke="black"/>
<line x1="520" y1="442" x2="520" y2="470" stroke="black"/>
<line x1="600" y1="442" x2="600" y2="470" stroke="black"/>
<line x1="680" y1="442" x2="680" y2="470" stroke="black"/>
<line x1="760" y1="442" x2="760" y2="470" stroke="black"/>
<line x1="840" y1="442" x2="840" y2="470" stroke="black"/>
<line x1="200" y1="453" x2="280" y2="453" stroke="black"/>
<line x1="280" y1="453" x2="270" y2="459" stroke="black"/>
<polygon fill="white" points="206,443 272,443 272,452 206,452"/>
<text x="207" y="452" textLength="64" font-family="Helvetica" font-size="12" fill="black">
CreateEntry
</text>
<line x1="40" y1="470" x2="40" y2="498" stroke="black"/>
<line x1="120" y1="470" x2="120" y2="498" stroke="black"/>
<line x1="200" y1="470" x2="200" y2="498" stroke="black"/>
<line x1="280" y1="470" x2="280" y2="498" stroke="black"/>
<line x1="360" y1="470" x2="360" y2="498" stroke="black"/>
<line x1="440" y1="470" x2="440" y2="498" stroke="black"/>
<line x1="520" y1="470" x2="520" y2="498" stroke="black"/>
<line x1="600" y1="470" x2="600" y2="498" stroke="black"/>
<line x1="680" y1="470" x2="680" y2="498" stroke="black"/>
<line x1="760" y1="470" x2="760" y2="498" stroke="black"/>
<line x1="840" y1="470" x2="840" y2="498" stroke="black"/>
<line x1="280" y1="481" x2="200" y2="481" stroke="black"/>
<line x1="200" y1="481" x2="210" y2="487" stroke="black"/>
<polygon fill="white" points="201,471 278,471 278,480 201,480"/>
<text x="202" y="480" textLength="75" font-family="Helvetica" font-size="12" fill="black">
SetChecksum
</text>
<line x1="40" y1="498" x2="40" y2="526" stroke="black"/>
<line x1="120" y1="498" x2="120" y2="526" stroke="black"/>
<line x1="200" y1="498" x2="200" y2="526" stroke="black"/>
<line x1="280" y1="498" x2="280" y2="526" stroke="black"/>
<line x1="360" y1="498" x2="360" y2="526" stroke="black"/>
<line x1="440" y1="498" x2="440" y2="526" stroke="black"/>
<line x1="520" y1="498" x2="520" y2="526" stroke="black"/>
<line x1="600" y1="498" x2="600" y2="526" stroke="black"/>
<line x1="680" y1="498" x2="680" y2="526" stroke="black"/>
<line x1="760" y1="498" x2="760" y2="526" stroke="black"/>
<line x1="840" y1="498" x2="840" y2="526" stroke="black"/>
<line x1="200" y1="509" x2="280" y2="509" stroke="black"/>
<line x1="280" y1="509" x2="270" y2="515" stroke="black"/>
<polygon fill="white" points="201,499 278,499 278,508 201,508"/>
<text x="202" y="508" textLength="75" font-family="Helvetica" font-size="12" fill="black">
SetChecksum
</text>
<line x1="40" y1="526" x2="40" y2="554" stroke="black"/>
<line x1="120" y1="526" x2="120" y2="554" stroke="black"/>
<line x1="200" y1="526" x2="200" y2="554" stroke="black"/>
<line x1="280" y1="526" x2="280" y2="554" stroke="black"/>
<line x1="360" y1="526" x2="360" y2="554" stroke="black"/>
<line x1="440" y1="526" x2="440" y2="554" stroke="black"/>
<line x1="520" y1="526" x2="520" y2="554" stroke="black"/>
<line x1="600" y1="526" x2="600" y2="554" stroke="black"/>
<line x1="680" y1="526" x2="680" y2="554" stroke="black"/>
<line x1="760" y1="526" x2="760" y2="554" stroke="black"/>
<line x1="840" y1="526" x2="840" y2="554" stroke="black"/>
<line x1="280" y1="537" x2="440" y2="537" stroke="black"/>
<line x1="440" y1="537" x2="430" y2="543" stroke="black"/>
<polygon fill="white" points="316,527 403,527 403,536 316,536"/>
<text x="317" y="536" textLength="85" font-family="Helvetica" font-size="12" fill="black">
SelectWritePool
</text>
<line x1="40" y1="554" x2="40" y2="582" stroke="black"/>
<line x1="120" y1="554" x2="120" y2="582" stroke="black"/>
<line x1="200" y1="554" x2="200" y2="582" stroke="black"/>
<line x1="280" y1="554" x2="280" y2="582" stroke="black"/>
<line x1="360" y1="554" x2="360" y2="582" stroke="black"/>
<line x1="440" y1="554" x2="440" y2="582" stroke="black"/>
<line x1="520" y1="554" x2="520" y2="582" stroke="black"/>
<line x1="600" y1="554" x2="600" y2="582" stroke="black"/>
<line x1="680" y1="554" x2="680" y2="582" stroke="black"/>
<line x1="760" y1="554" x2="760" y2="582" stroke="black"/>
<line x1="840" y1="554" x2="840" y2="582" stroke="black"/>
<line x1="440" y1="565" x2="520" y2="565" stroke="black"/>
<line x1="520" y1="565" x2="510" y2="571" stroke="black"/>
<polygon fill="white" points="436,555 523,555 523,564 436,564"/>
<text x="437" y="564" textLength="85" font-family="Helvetica" font-size="12" fill="black">
SelectWritePool
</text>
<line x1="40" y1="582" x2="40" y2="610" stroke="black"/>
<line x1="120" y1="582" x2="120" y2="610" stroke="black"/>
<line x1="200" y1="582" x2="200" y2="610" stroke="black"/>
<line x1="280" y1="582" x2="280" y2="610" stroke="black"/>
<line x1="360" y1="582" x2="360" y2="610" stroke="black"/>
<line x1="440" y1="582" x2="440" y2="610" stroke="black"/>
<line x1="520" y1="582" x2="520" y2="610" stroke="black"/>
<line x1="600" y1="582" x2="600" y2="610" stroke="black"/>
<line x1="680" y1="582" x2="680" y2="610" stroke="black"/>
<line x1="760" y1="582" x2="760" y2="610" stroke="black"/>
<line x1="840" y1="582" x2="840" y2="610" stroke="black"/>
<line x1="520" y1="593" x2="440" y2="593" stroke="black"/>
<line x1="440" y1="593" x2="450" y2="599" stroke="black"/>
<polygon fill="white" points="436,583 523,583 523,592 436,592"/>
<text x="437" y="592" textLength="85" font-family="Helvetica" font-size="12" fill="black">
SelectWritePool
</text>
<line x1="40" y1="610" x2="40" y2="638" stroke="black"/>
<line x1="120" y1="610" x2="120" y2="638" stroke="black"/>
<line x1="200" y1="610" x2="200" y2="638" stroke="black"/>
<line x1="280" y1="610" x2="280" y2="638" stroke="black"/>
<line x1="360" y1="610" x2="360" y2="638" stroke="black"/>
<line x1="440" y1="610" x2="440" y2="638" stroke="black"/>
<line x1="520" y1="610" x2="520" y2="638" stroke="black"/>
<line x1="600" y1="610" x2="600" y2="638" stroke="black"/>
<line x1="680" y1="610" x2="680" y2="638" stroke="black"/>
<line x1="760" y1="610" x2="760" y2="638" stroke="black"/>
<line x1="840" y1="610" x2="840" y2="638" stroke="black"/>
<line x1="440" y1="621" x2="280" y2="621" stroke="black"/>
<line x1="280" y1="621" x2="290" y2="627" stroke="black"/>
<polygon fill="white" points="316,611 403,611 403,620 316,620"/>
<text x="317" y="620" textLength="85" font-family="Helvetica" font-size="12" fill="black">
SelectWritePool
</text>
<line x1="40" y1="638" x2="40" y2="666" stroke="black"/>
<line x1="120" y1="638" x2="120" y2="666" stroke="black"/>
<line x1="200" y1="638" x2="200" y2="666" stroke="black"/>
<line x1="280" y1="638" x2="280" y2="666" stroke="black"/>
<line x1="360" y1="638" x2="360" y2="666" stroke="black"/>
<line x1="440" y1="638" x2="440" y2="666" stroke="black"/>
<line x1="520" y1="638" x2="520" y2="666" stroke="black"/>
<line x1="600" y1="638" x2="600" y2="666" stroke="black"/>
<line x1="680" y1="638" x2="680" y2="666" stroke="black"/>
<line x1="760" y1="638" x2="760" y2="666" stroke="black"/>
<line x1="840" y1="638" x2="840" y2="666" stroke="black"/>
<line x1="280" y1="649" x2="440" y2="649" stroke="black"/>
<line x1="440" y1="649" x2="430" y2="655" stroke="black"/>
<polygon fill="white" points="318,639 400,639 400,648 318,648"/>
<text x="319" y="648" textLength="80" font-family="Helvetica" font-size="12" fill="black">
PoolAcceptFile
</text>
<line x1="40" y1="666" x2="40" y2="694" stroke="black"/>
<line x1="120" y1="666" x2="120" y2="694" stroke="black"/>
<line x1="200" y1="666" x2="200" y2="694" stroke="black"/>
<line x1="280" y1="666" x2="280" y2="694" stroke="black"/>
<line x1="360" y1="666" x2="360" y2="694" stroke="black"/>
<line x1="440" y1="666" x2="440" y2="694" stroke="black"/>
<line x1="520" y1="666" x2="520" y2="694" stroke="black"/>
<line x1="600" y1="666" x2="600" y2="694" stroke="black"/>
<line x1="680" y1="666" x2="680" y2="694" stroke="black"/>
<line x1="760" y1="666" x2="760" y2="694" stroke="black"/>
<line x1="840" y1="666" x2="840" y2="694" stroke="black"/>
<line x1="440" y1="677" x2="520" y2="677" stroke="black"/>
<line x1="520" y1="677" x2="510" y2="683" stroke="black"/>
<polygon fill="white" points="438,667 520,667 520,676 438,676"/>
<text x="439" y="676" textLength="80" font-family="Helvetica" font-size="12" fill="black">
PoolAcceptFile
</text>
<line x1="40" y1="694" x2="40" y2="722" stroke="black"/>
<line x1="120" y1="694" x2="120" y2="722" stroke="black"/>
<line x1="200" y1="694" x2="200" y2="722" stroke="black"/>
<line x1="280" y1="694" x2="280" y2="722" stroke="black"/>
<line x1="360" y1="694" x2="360" y2="722" stroke="black"/>
<line x1="440" y1="694" x2="440" y2="722" stroke="black"/>
<line x1="520" y1="694" x2="520" y2="722" stroke="black"/>
<line x1="600" y1="694" x2="600" y2="722" stroke="black"/>
<line x1="680" y1="694" x2="680" y2="722" stroke="black"/>
<line x1="760" y1="694" x2="760" y2="722" stroke="black"/>
<line x1="840" y1="694" x2="840" y2="722" stroke="black"/>
<line x1="520" y1="705" x2="600" y2="705" stroke="black"/>
<line x1="600" y1="705" x2="590" y2="711" stroke="black"/>
<polygon fill="white" points="518,695 600,695 600,704 518,704"/>
<text x="519" y="704" textLength="80" font-family="Helvetica" font-size="12" fill="black">
PoolAcceptFile
</text>
<line x1="40" y1="722" x2="40" y2="750" stroke="black"/>
<line x1="120" y1="722" x2="120" y2="750" stroke="black"/>
<line x1="200" y1="722" x2="200" y2="750" stroke="black"/>
<line x1="280" y1="722" x2="280" y2="750" stroke="black"/>
<line x1="360" y1="722" x2="360" y2="750" stroke="black"/>
<line x1="440" y1="722" x2="440" y2="750" stroke="black"/>
<line x1="520" y1="722" x2="520" y2="750" stroke="black"/>
<line x1="600" y1="722" x2="600" y2="750" stroke="black"/>
<line x1="680" y1="722" x2="680" y2="750" stroke="black"/>
<line x1="760" y1="722" x2="760" y2="750" stroke="black"/>
<line x1="840" y1="722" x2="840" y2="750" stroke="black"/>
<line x1="600" y1="733" x2="520" y2="733" stroke="black"/>
<line x1="520" y1="733" x2="530" y2="739" stroke="black"/>
<polygon fill="white" points="518,723 600,723 600,732 518,732"/>
<text x="519" y="732" textLength="80" font-family="Helvetica" font-size="12" fill="black">
PoolAcceptFile
</text>
<line x1="40" y1="750" x2="40" y2="778" stroke="black"/>
<line x1="120" y1="750" x2="120" y2="778" stroke="black"/>
<line x1="200" y1="750" x2="200" y2="778" stroke="black"/>
<line x1="280" y1="750" x2="280" y2="778" stroke="black"/>
<line x1="360" y1="750" x2="360" y2="778" stroke="black"/>
<line x1="440" y1="750" x2="440" y2="778" stroke="black"/>
<line x1="520" y1="750" x2="520" y2="778" stroke="black"/>
<line x1="600" y1="750" x2="600" y2="778" stroke="black"/>
<line x1="680" y1="750" x2="680" y2="778" stroke="black"/>
<line x1="760" y1="750" x2="760" y2="778" stroke="black"/>
<line x1="840" y1="750" x2="840" y2="778" stroke="black"/>
<line x1="600" y1="761" x2="280" y2="761" stroke="black"/>
<line x1="280" y1="761" x2="290" y2="767" stroke="black"/>
<polygon fill="white" points="383,751 495,751 495,760 383,760"/>
<text x="384" y="760" textLength="110" font-family="Helvetica" font-size="12" fill="black">
GFtpTransferStarted
</text>
<line x1="40" y1="778" x2="40" y2="806" stroke="black"/>
<line x1="120" y1="778" x2="120" y2="806" stroke="black"/>
<line x1="200" y1="778" x2="200" y2="806" stroke="black"/>
<line x1="280" y1="778" x2="280" y2="806" stroke="black"/>
<line x1="360" y1="778" x2="360" y2="806" stroke="black"/>
<line x1="440" y1="778" x2="440" y2="806" stroke="black"/>
<line x1="520" y1="778" x2="520" y2="806" stroke="black"/>
<line x1="600" y1="778" x2="600" y2="806" stroke="black"/>
<line x1="680" y1="778" x2="680" y2="806" stroke="black"/>
<line x1="760" y1="778" x2="760" y2="806" stroke="black"/>
<line x1="840" y1="778" x2="840" y2="806" stroke="black"/>
<line x1="520" y1="789" x2="440" y2="789" stroke="black"/>
<line x1="440" y1="789" x2="450" y2="795" stroke="black"/>
<polygon fill="white" points="438,779 520,779 520,788 438,788"/>
<text x="439" y="788" textLength="80" font-family="Helvetica" font-size="12" fill="black">
PoolAcceptFile
</text>
<line x1="40" y1="806" x2="40" y2="834" stroke="black"/>
<line x1="120" y1="806" x2="120" y2="834" stroke="black"/>
<line x1="200" y1="806" x2="200" y2="834" stroke="black"/>
<line x1="280" y1="806" x2="280" y2="834" stroke="black"/>
<line x1="360" y1="806" x2="360" y2="834" stroke="black"/>
<line x1="440" y1="806" x2="440" y2="834" stroke="black"/>
<line x1="520" y1="806" x2="520" y2="834" stroke="black"/>
<line x1="600" y1="806" x2="600" y2="834" stroke="black"/>
<line x1="680" y1="806" x2="680" y2="834" stroke="black"/>
<line x1="760" y1="806" x2="760" y2="834" stroke="black"/>
<line x1="840" y1="806" x2="840" y2="834" stroke="black"/>
<line x1="440" y1="817" x2="280" y2="817" stroke="black"/>
<line x1="280" y1="817" x2="290" y2="823" stroke="black"/>
<polygon fill="white" points="318,807 400,807 400,816 318,816"/>
<text x="319" y="816" textLength="80" font-family="Helvetica" font-size="12" fill="black">
PoolAcceptFile
</text>
<line x1="40" y1="834" x2="40" y2="862" stroke="black"/>
<line x1="120" y1="834" x2="120" y2="862" stroke="black"/>
<line x1="200" y1="834" x2="200" y2="862" stroke="black"/>
<line x1="280" y1="834" x2="280" y2="862" stroke="black"/>
<line x1="360" y1="834" x2="360" y2="862" stroke="black"/>
<line x1="440" y1="834" x2="440" y2="862" stroke="black"/>
<line x1="520" y1="834" x2="520" y2="862" stroke="black"/>
<line x1="600" y1="834" x2="600" y2="862" stroke="black"/>
<line x1="680" y1="834" x2="680" y2="862" stroke="black"/>
<line x1="760" y1="834" x2="760" y2="862" stroke="black"/>
<line x1="840" y1="834" x2="840" y2="862" stroke="black"/>
<line x1="600" y1="845" x2="200" y2="845" stroke="black"/>
<line x1="200" y1="845" x2="210" y2="851" stroke="black"/>
<polygon fill="white" points="354,835 445,835 445,844 354,844"/>
<text x="355" y="844" textLength="89" font-family="Helvetica" font-size="12" fill="black">
GetFileAttributes
</text>
<line x1="40" y1="862" x2="40" y2="890" stroke="black"/>
<line x1="120" y1="862" x2="120" y2="890" stroke="black"/>
<line x1="200" y1="862" x2="200" y2="890" stroke="black"/>
<line x1="280" y1="862" x2="280" y2="890" stroke="black"/>
<line x1="360" y1="862" x2="360" y2="890" stroke="black"/>
<line x1="440" y1="862" x2="440" y2="890" stroke="black"/>
<line x1="520" y1="862" x2="520" y2="890" stroke="black"/>
<line x1="600" y1="862" x2="600" y2="890" stroke="black"/>
<line x1="680" y1="862" x2="680" y2="890" stroke="black"/>
<line x1="760" y1="862" x2="760" y2="890" stroke="black"/>
<line x1="840" y1="862" x2="840" y2="890" stroke="black"/>
<line x1="200" y1="873" x2="600" y2="873" stroke="black"/>
<line x1="600" y1="873" x2="590" y2="879" stroke="black"/>
<polygon fill="white" points="354,863 445,863 445,872 354,872"/>
<text x="355" y="872" textLength="89" font-family="Helvetica" font-size="12" fill="black">
GetFileAttributes
</text>
<line x1="40" y1="890" x2="40" y2="918" stroke="black"/>
<line x1="120" y1="890" x2="120" y2="918" stroke="black"/>
<line x1="200" y1="890" x2="200" y2="918" stroke="black"/>
<line x1="280" y1="890" x2="280" y2="918" stroke="black"/>
<line x1="360" y1="890" x2="360" y2="918" stroke="black"/>
<line x1="440" y1="890" x2="440" y2="918" stroke="black"/>
<line x1="520" y1="890" x2="520" y2="918" stroke="black"/>
<line x1="600" y1="890" x2="600" y2="918" stroke="black"/>
<line x1="680" y1="890" x2="680" y2="918" stroke="black"/>
<line x1="760" y1="890" x2="760" y2="918" stroke="black"/>
<line x1="840" y1="890" x2="840" y2="918" stroke="black"/>
<line x1="600" y1="901" x2="200" y2="901" stroke="black"/>
<line x1="200" y1="901" x2="210" y2="907" stroke="black"/>
<polygon fill="white" points="354,891 444,891 444,900 354,900"/>
<text x="355" y="900" textLength="88" font-family="Helvetica" font-size="12" fill="black">
SetFileAttributes
</text>
<line x1="40" y1="918" x2="40" y2="946" stroke="black"/>
<line x1="120" y1="918" x2="120" y2="946" stroke="black"/>
<line x1="200" y1="918" x2="200" y2="946" stroke="black"/>
<line x1="280" y1="918" x2="280" y2="946" stroke="black"/>
<line x1="360" y1="918" x2="360" y2="946" stroke="black"/>
<line x1="440" y1="918" x2="440" y2="946" stroke="black"/>
<line x1="520" y1="918" x2="520" y2="946" stroke="black"/>
<line x1="600" y1="918" x2="600" y2="946" stroke="black"/>
<line x1="680" y1="918" x2="680" y2="946" stroke="black"/>
<line x1="760" y1="918" x2="760" y2="946" stroke="black"/>
<line x1="840" y1="918" x2="840" y2="946" stroke="black"/>
<line x1="200" y1="929" x2="680" y2="929" stroke="black"/>
<line x1="680" y1="929" x2="670" y2="935" stroke="black"/>
<polygon fill="white" points="388,919 491,919 491,928 388,928"/>
<text x="389" y="928" textLength="101" font-family="Helvetica" font-size="12" fill="black">
AddCacheLocation
</text>
<line x1="40" y1="946" x2="40" y2="974" stroke="black"/>
<line x1="120" y1="946" x2="120" y2="974" stroke="black"/>
<line x1="200" y1="946" x2="200" y2="974" stroke="black"/>
<line x1="280" y1="946" x2="280" y2="974" stroke="black"/>
<line x1="360" y1="946" x2="360" y2="974" stroke="black"/>
<line x1="440" y1="946" x2="440" y2="974" stroke="black"/>
<line x1="520" y1="946" x2="520" y2="974" stroke="black"/>
<line x1="600" y1="946" x2="600" y2="974" stroke="black"/>
<line x1="680" y1="946" x2="680" y2="974" stroke="black"/>
<line x1="760" y1="946" x2="760" y2="974" stroke="black"/>
<line x1="840" y1="946" x2="840" y2="974" stroke="black"/>
<line x1="680" y1="957" x2="760" y2="957" stroke="black"/>
<line x1="760" y1="957" x2="750" y2="963" stroke="black"/>
<polygon fill="white" points="668,947 771,947 771,956 668,956"/>
<text x="669" y="956" textLength="101" font-family="Helvetica" font-size="12" fill="black">
AddCacheLocation
</text>
<line x1="40" y1="974" x2="40" y2="1002" stroke="black"/>
<line x1="120" y1="974" x2="120" y2="1002" stroke="black"/>
<line x1="200" y1="974" x2="200" y2="1002" stroke="black"/>
<line x1="280" y1="974" x2="280" y2="1002" stroke="black"/>
<line x1="360" y1="974" x2="360" y2="1002" stroke="black"/>
<line x1="440" y1="974" x2="440" y2="1002" stroke="black"/>
<line x1="520" y1="974" x2="520" y2="1002" stroke="black"/>
<line x1="600" y1="974" x2="600" y2="1002" stroke="black"/>
<line x1="680" y1="974" x2="680" y2="1002" stroke="black"/>
<line x1="760" y1="974" x2="760" y2="1002" stroke="black"/>
<line x1="840" y1="974" x2="840" y2="1002" stroke="black"/>
<line x1="200" y1="985" x2="600" y2="985" stroke="black"/>
<line x1="600" y1="985" x2="590" y2="991" stroke="black"/>
<polygon fill="white" points="354,975 444,975 444,984 354,984"/>
<text x="355" y="984" textLength="88" font-family="Helvetica" font-size="12" fill="black">
SetFileAttributes
</text>
<line x1="40" y1="1002" x2="40" y2="1030" stroke="black"/>
<line x1="120" y1="1002" x2="120" y2="1030" stroke="black"/>
<line x1="200" y1="1002" x2="200" y2="1030" stroke="black"/>
<line x1="280" y1="1002" x2="280" y2="1030" stroke="black"/>
<line x1="360" y1="1002" x2="360" y2="1030" stroke="black"/>
<line x1="440" y1="1002" x2="440" y2="1030" stroke="black"/>
<line x1="520" y1="1002" x2="520" y2="1030" stroke="black"/>
<line x1="600" y1="1002" x2="600" y2="1030" stroke="black"/>
<line x1="680" y1="1002" x2="680" y2="1030" stroke="black"/>
<line x1="760" y1="1002" x2="760" y2="1030" stroke="black"/>
<line x1="840" y1="1002" x2="840" y2="1030" stroke="black"/>
<line x1="600" y1="1013" x2="840" y2="1013" stroke="black"/>
<line x1="840" y1="1013" x2="830" y2="1019" stroke="black"/>
<polygon fill="white" points="692,1003 747,1003 747,1012 692,1012"/>
<text x="693" y="1012" textLength="53" font-family="Helvetica" font-size="12" fill="black">
MoverInfo
</text>
<line x1="40" y1="1030" x2="40" y2="1058" stroke="black"/>
<line x1="120" y1="1030" x2="120" y2="1058" stroke="black"/>
<line x1="200" y1="1030" x2="200" y2="1058" stroke="black"/>
<line x1="280" y1="1030" x2="280" y2="1058" stroke="black"/>
<line x1="360" y1="1030" x2="360" y2="1058" stroke="black"/>
<line x1="440" y1="1030" x2="440" y2="1058" stroke="black"/>
<line x1="520" y1="1030" x2="520" y2="1058" stroke="black"/>
<line x1="600" y1="1030" x2="600" y2="1058" stroke="black"/>
<line x1="680" y1="1030" x2="680" y2="1058" stroke="black"/>
<line x1="760" y1="1030" x2="760" y2="1058" stroke="black"/>
<line x1="840" y1="1030" x2="840" y2="1058" stroke="black"/>
<line x1="600" y1="1041" x2="520" y2="1041" stroke="black"/>
<line x1="520" y1="1041" x2="530" y2="1047" stroke="black"/>
<polygon fill="white" points="513,1031 605,1031 605,1040 513,1040"/>
<text x="514" y="1040" textLength="90" font-family="Helvetica" font-size="12" fill="black">
TransferFinished
</text>
<line x1="40" y1="1058" x2="40" y2="1086" stroke="black"/>
<line x1="120" y1="1058" x2="120" y2="1086" stroke="black"/>
<line x1="200" y1="1058" x2="200" y2="1086" stroke="black"/>
<line x1="280" y1="1058" x2="280" y2="1086" stroke="black"/>
<line x1="360" y1="1058" x2="360" y2="1086" stroke="black"/>
<line x1="440" y1="1058" x2="440" y2="1086" stroke="black"/>
<line x1="520" y1="1058" x2="520" y2="1086" stroke="black"/>
<line x1="600" y1="1058" x2="600" y2="1086" stroke="black"/>
<line x1="680" y1="1058" x2="680" y2="1086" stroke="black"/>
<line x1="760" y1="1058" x2="760" y2="1086" stroke="black"/>
<line x1="840" y1="1058" x2="840" y2="1086" stroke="black"/>
<line x1="520" y1="1069" x2="440" y2="1069" stroke="black"/>
<line x1="440" y1="1069" x2="450" y2="1075" stroke="black"/>
<polygon fill="white" points="433,1059 525,1059 525,1068 433,1068"/>
<text x="434" y="1068" textLength="90" font-family="Helvetica" font-size="12" fill="black">
TransferFinished
</text>
<line x1="40" y1="1086" x2="40" y2="1114" stroke="black"/>
<line x1="120" y1="1086" x2="120" y2="1114" stroke="black"/>
<line x1="200" y1="1086" x2="200" y2="1114" stroke="black"/>
<line x1="280" y1="1086" x2="280" y2="1114" stroke="black"/>
<line x1="360" y1="1086" x2="360" y2="1114" stroke="black"/>
<line x1="440" y1="1086" x2="440" y2="1114" stroke="black"/>
<line x1="520" y1="1086" x2="520" y2="1114" stroke="black"/>
<line x1="600" y1="1086" x2="600" y2="1114" stroke="black"/>
<line x1="680" y1="1086" x2="680" y2="1114" stroke="black"/>
<line x1="760" y1="1086" x2="760" y2="1114" stroke="black"/>
<line x1="840" y1="1086" x2="840" y2="1114" stroke="black"/>
<line x1="440" y1="1097" x2="280" y2="1097" stroke="black"/>
<line x1="280" y1="1097" x2="290" y2="1103" stroke="black"/>
<polygon fill="white" points="313,1087 405,1087 405,1096 313,1096"/>
<text x="314" y="1096" textLength="90" font-family="Helvetica" font-size="12" fill="black">
TransferFinished
</text>
<line x1="40" y1="1114" x2="40" y2="1142" stroke="black"/>
<line x1="120" y1="1114" x2="120" y2="1142" stroke="black"/>
<line x1="200" y1="1114" x2="200" y2="1142" stroke="black"/>
<line x1="280" y1="1114" x2="280" y2="1142" stroke="black"/>
<line x1="360" y1="1114" x2="360" y2="1142" stroke="black"/>
<line x1="440" y1="1114" x2="440" y2="1142" stroke="black"/>
<line x1="520" y1="1114" x2="520" y2="1142" stroke="black"/>
<line x1="600" y1="1114" x2="600" y2="1142" stroke="black"/>
<line x1="680" y1="1114" x2="680" y2="1142" stroke="black"/>
<line x1="760" y1="1114" x2="760" y2="1142" stroke="black"/>
<line x1="840" y1="1114" x2="840" y2="1142" stroke="black"/>
<line x1="280" y1="1125" x2="840" y2="1125" stroke="black"/>
<line x1="840" y1="1125" x2="830" y2="1131" stroke="black"/>
<polygon fill="white" points="526,1115 593,1115 593,1124 526,1124"/>
<text x="527" y="1124" textLength="65" font-family="Helvetica" font-size="12" fill="black">
RequestInfo
</text>
<line x1="40" y1="1142" x2="40" y2="1170" stroke="black"/>
<line x1="120" y1="1142" x2="120" y2="1170" stroke="black"/>
<line x1="200" y1="1142" x2="200" y2="1170" stroke="black"/>
<line x1="280" y1="1142" x2="280" y2="1170" stroke="black"/>
<line x1="360" y1="1142" x2="360" y2="1170" stroke="black"/>
<line x1="440" y1="1142" x2="440" y2="1170" stroke="black"/>
<line x1="520" y1="1142" x2="520" y2="1170" stroke="black"/>
<line x1="600" y1="1142" x2="600" y2="1170" stroke="black"/>
<line x1="680" y1="1142" x2="680" y2="1170" stroke="black"/>
<line x1="760" y1="1142" x2="760" y2="1170" stroke="black"/>
<line x1="840" y1="1142" x2="840" y2="1170" stroke="black"/>
<line x1="40" y1="1153" x2="200" y2="1153" stroke="black"/>
<line x1="200" y1="1153" x2="190" y2="1159" stroke="black"/>
<polygon fill="white" points="94,1143 144,1143 144,1152 94,1152"/>
<text x="95" y="1152" textLength="48" font-family="Helvetica" font-size="12" fill="black">
MapPath
</text>
<line x1="40" y1="1170" x2="40" y2="1198" stroke="black"/>
<line x1="120" y1="1170" x2="120" y2="1198" stroke="black"/>
<line x1="200" y1="1170" x2="200" y2="1198" stroke="black"/>
<line x1="280" y1="1170" x2="280" y2="1198" stroke="black"/>
<line x1="360" y1="1170" x2="360" y2="1198" stroke="black"/>
<line x1="440" y1="1170" x2="440" y2="1198" stroke="black"/>
<line x1="520" y1="1170" x2="520" y2="1198" stroke="black"/>
<line x1="600" y1="1170" x2="600" y2="1198" stroke="black"/>
<line x1="680" y1="1170" x2="680" y2="1198" stroke="black"/>
<line x1="760" y1="1170" x2="760" y2="1198" stroke="black"/>
<line x1="840" y1="1170" x2="840" y2="1198" stroke="black"/>
<line x1="200" y1="1181" x2="40" y2="1181" stroke="black"/>
<line x1="40" y1="1181" x2="50" y2="1187" stroke="black"/>
<polygon fill="white" points="94,1171 144,1171 144,1180 94,1180"/>
<text x="95" y="1180" textLength="48" font-family="Helvetica" font-size="12" fill="black">
MapPath
</text>
<line x1="40" y1="1192" x2="40" y2="1198" stroke="black"/>
<line x1="120" y1="1192" x2="120" y2="1198" stroke="black"/>
<line x1="200" y1="1192" x2="200" y2="1198" stroke="black"/>
<line x1="280" y1="1192" x2="280" y2="1198" stroke="black"/>
<line x1="360" y1="1192" x2="360" y2="1198" stroke="black"/>
<line x1="440" y1="1192" x2="440" y2="1198" stroke="black"/>
<line x1="520" y1="1192" x2="520" y2="1198" stroke="black"/>
<line x1="600" y1="1192" x2="600" y2="1198" stroke="black"/>
<line x1="680" y1="1192" x2="680" y2="1198" stroke="black"/>
<line x1="760" y1="1192" x2="760" y2="1198" stroke="black"/>
<line x1="840" y1="1192" x2="840" y2="1198" stroke="black"/>
</svg>
